<?xml version="1.0" encoding="utf-8"?>
<!-- Generator: Adobe Illustrator 17.1.0, SVG Export Plug-In . SVG Version: 6.00 Build 0)  -->
<!DOCTYPE svg PUBLIC "-//W3C//DTD SVG 1.1//EN" "http://www.w3.org/Graphics/SVG/1.1/DTD/svg11.dtd">
<svg version="1.1" id="santa" xmlns="http://www.w3.org/2000/svg" xmlns:xlink="http://www.w3.org/1999/xlink" x="0px"
	 y="0px" width="173px" height="70px" viewBox="0 0 173.7 69.3" enable-background="new 0 0 173.7 69.3" xml:space="preserve">
<path fill="#ffffff" d="M-116.4,39.7c-1.8-4.3-5.3-5.6-8-7.3c-1.4-0.9-3.2-1.2-4.1-2.5c0.1-1-0.1-2.1-0.6-2.9
	c-1.3-2.3-4-2.5-3.9-4.1c0,0-0.9-2.1-1.8-2.3c-0.9-0.2-1.1,0.2-1.2,0.8c0,0.3-0.5,0.3-1,0.3c-0.6-0.9-1.1-1.7-1.3-1.9
	c0,0,0.9-0.8-0.1-1.4c0,0,0.5-0.3,0.2-0.6c0,0,0.1-0.6-0.2-0.8c0,0,0.6-1-0.1-1.8c0,0-0.1-0.1,0.2-0.2c0,0,0.2,0.3,0.4,0.3
	c0.2,0,0.3-0.2,0.3-0.2s0.2-0.5,0.2-0.8s0.1-0.6,0-0.8c-0.1-0.2-0.1-0.1-0.4-0.6c-0.3-0.4-0.2-0.5-0.1-0.7c0.1-0.2,0.3,0,0.5,0.2
	c0.2,0.2,1,1.8,1.1,3.1c0,0-0.3,0.2-0.5,0.6c-0.1,0.3-0.1,0.6-0.1,0.8c0,0.2,0.1,0.2,0.2,0.5c0.1,0.2,0.2,0.2,0.4,0.3
	c0.1,0.1,0.7,0.2,0.9,0.2c0.2,0,0.6,0,0.9-0.3c0.2-0.3,0.4-0.8,0.4-1.3c0-0.5-0.4-0.8-0.5-0.9c-0.1-0.1-0.5-0.2-0.5-0.3
	c0-0.1-0.3,0.1-0.3,0c0-0.1,0.3-1.6-0.6-4.4c-0.9-2.8-2.3-4.3-5.3-4.8c-3-0.5-6,1.2-7.1,3.6c0,0-0.5,0-0.7,0.1
	c-0.1,0.1-0.3,0.3-0.3,0.4c0,0.1-0.1,0.4-0.1,0.5c0,0.1-0.2,0.3-0.1,0.5c0.1,0.1,0,0.4,0.1,0.5c0.1,0.1,0.5,0.1,0.5,0.1
	s-0.1,0.5,0.2,0.9c0,0,0,0.3,0,0.5c0,0.2-0.4,1.1-0.7,1.2c-0.3,0.1-1.3-0.2-1.1,0.9c0,0-1,0.2-0.6,1.2c0,0-0.3,0.3,0,0.6
	c0,0-0.9,0.8-0.2,1.6c0,0-0.5,0.5,0.2,0.9c0,0,0.1,0.3-0.1,0.5c-0.3,0.2-0.2,0.5-0.1,0.7c0.1,0.2,0,0.9-0.6,1c0,0,0.2,0.3,0.7,0.2
	c0.5-0.1,0.1,0.2,0.4,0.2c0.2,0-0.7,0.8-1.4,1.9c-1.4,0.7-3.9,1.7-4.2,1.6c-0.5-0.2-0.5-1-1.5-0.1l-0.5-1.7c0.4-0.2,0.6-0.4,0.6-0.4
	s-0.2-1.8-0.4-2.4c-0.1-0.2-0.8-0.1-1.7,0.2c-0.2-0.6-0.4-1.4-0.3-1.7c0.3-0.6,1.1-1.5,0.2-2.6c0,0,0.1-1.6,0.2-1.9
	c0.1-0.3,0.8-1.6,0.8-1.9c0-0.3-1.2-1.5-1.7-0.3c-0.5,1.2,0,1.6,0,1.6l-0.3,0.9c0,0-1.2-0.2-2.5-0.3c-1.3-0.1-1.6,0.3-1.3,1.1
	c0,0-0.4,0.6,0.1,1.3c0,0-0.2,1,0.5,1.5c0,0-0.2,0.8,0.7,1.3c0.8,0.4,1.4,0.8,1.6,1.8c-0.6,0.3-1.1,0.5-1.3,0.6
	c-0.8,0.4,0.4,2.1,0.8,2.8c0.1,0.1,0.3,0.1,0.5,0.1c0.5,1.6,1.2,3.7,1.8,3.9c0.6,0.2,2.7-0.2,4.8-0.6c-1.5,2.2-2.8,5.2,0.1,7.1
	c0,0-0.2,1.7,0,2c0,0-2.5,2-3.2,4.6c0,0-0.4,0-0.5,0.2c-0.1,0.3-0.5,0.6-0.5,1c0.1,0.4-0.1,0.8,0,1.1c0,0.2,0.2,0.5,0.4,0.7
	c0.2,0.2,1.4,0.7,1.8,0.9c0.5,0.1,0.2,0.3,0.7,0.4c0.1,0,0.5,0,1.3,0.1c0.2,0.5,0.5,0.9,0.9,1l0.5,3.8c0,0-0.1,0.5-0.5,0.6
	c-0.4,0.1-0.6,1.1-0.5,1.6c0.1,0.5-0.1,1.1,0.4,1.3c0.5,0.2,0.6,0.4,1.1,0.4c0.5,0-0.2,0.5,0,1.2c0.2,0.7,0.4,2.9,0.1,3.7
	c-0.3,0.8-1.7,2.1-2.9,2c-1.2-0.1-2.5-1.2-3.1,0.6c-0.6,1.8,0.7,3.1,3.4,3c2.7-0.1,3.1-0.4,4.1-0.5c1-0.1,1.9,0.7,2.6,0.2
	c0.7-0.5,0.3-3.1,0-4c-0.3-0.9,1.6-4.5,1.4-5.8c0.5,0.3,1,0.4,1.5-0.4c0.5-0.8,0.6-2.3,0-2.6c-0.6-0.3-0.6-0.3-0.6-0.3l-0.1-2.5
	c0,0,2.7,0.3,4.1,0.1c0,0,2.1,3.4,2.8,3.8c0,0-0.6,0.6-0.4,1.2c0.2,0.6,0.7,1.7,1.1,1.8c0.4,0.1,0.6,0.6,1.5,0.3
	c0.3-0.1,0.4-0.2,0.5-0.2c0.1,0.4,0.5,1.9,1.8,3.2c1.5,1.5,2.2,2.3,2.3,3.1c0.1,0.8,0.3,2.2,1,2.5c0.7,0.3,3.1,0.5,3.9,0.7
	c0.8,0.2,3.5,1.2,4.8,0.8c1.3-0.4,1.8-3.6-0.6-3.6c-2.4,0-4.2-0.9-5.1-1.6c-0.9-0.7-1.9-1.8-2.2-3.7c-0.3-1.9-0.3-1.9-0.3-1.9
	s0.7-0.1,0.8-0.8c0.1-0.7,0-2.2-0.4-2.4s-0.6-0.5-1.2-0.6c-0.6-0.1-1.2-3-2.1-4c0,0,0.5-0.6,0.4-0.9c0.1,0,0.3,0,0.3,0
	c2.1,4.3,6.5,5.5,8.8,5.7c1.7,0.1,5.8-0.8,7.5-3.7C-115.3,46.9-114.6,44-116.4,39.7z"/>
<g>
	<path fill="#ffffff" d="M173.6,32.5c-0.1-0.5-1.7-0.8-5.8-0.6c-4.2,0.2-5.8,4-7.3,7.5c-1.8-0.7-3.2-0.8-4.4-0.6
		c-0.3-0.6-0.6-1.2-1.1-1.8c0,0,0.3,0.1,0.8-0.1c0.6-0.3,1.2-1,0.5-1.8c0.8,0,0.9-1.6,0.1-1.8c-0.4-0.3-0.5-0.1-0.3-0.3
		c0.2-0.2,0.5-1-0.2-1.2c0,0,0.4-0.5-0.1-1c0,0,0.5-0.8-0.1-1.4c0,0-0.1-0.1-0.1-0.1c0.2,0.1,0.7,0.3,1-0.3c0.5-1,0.4-1.7,0.1-1.8
		c-0.2-0.1-0.5-1,0-0.8c0.5,0.2,2,2.3,4.7,2.4c0,0,0.2,1.1,1.1,1.2c0.9,0.1,1.8-0.1,2-1.1c0.2-1.1-0.1-1.5-1.1-1.8
		c-1-0.3-1.4,0.6-1.7,0.6c-0.2,0-1.8,0.1-2.7-1.8c-0.9-1.9-0.8-3.8-4.5-5.1c-3.6-1.3-5.4,0.9-5.4,0.9s-0.7-0.4-0.9-0.3
		c-0.2,0.1-1.1,1.7-1,2c0.1,0.3,0.9,0.7,0.9,0.7c-0.3,0.3-0.3,0.8-0.4,1c-0.2,0.5-0.6,1.1-0.9,0.4c-0.3-0.7-0.8-1.2-1.4-0.8
		c-0.5,0.3-0.7,1.6,1,2c0,0-0.5,0.3-0.3,0.6c0,0-1.1,0.3-0.7,1.3c0,0-0.7,0.6-0.1,1.3c0,0-0.8,0.2-0.4,0.9c0,0-0.5,0.6,0.1,1.2
		c0,0-0.4,0.9-0.9,0.5c-0.6-0.3,0.2,0.8,1.1,0.4c0,0,0.3,0.7,1,0.2c0,0-1.4,1.6-2.3,3.1c-1.4,0.4-2.7,0.7-2.8,0.7
		c-0.3,0-0.5-0.5-1.4,0c-0.5,0.3-2.2-0.8-3.5-1.6c0.2-0.5,0.3-0.8,0.3-0.8s-1.6-1-2-1c-0.1,0-0.3,0.3-0.6,0.7l-1.4-0.9
		c0,0-0.1-0.6-2.2-1.2c-0.1,0-0.1,0-0.2-0.1c-0.1-0.3-0.1-0.5-0.2-0.5c-0.2-0.1-0.5,0.1-0.6,0.2c-1.2-0.4-1.9-0.7-2-0.1
		c0,0.2,0.4,0.9,0.6,1l0,0.4c0,0-0.6,1.6,0.3,2.7c0.5,0.6,1,0.8,1.7,0.8c-0.1,1-0.1,1.8-0.1,2.1c-0.1,1,0.4,1.1,0.5,0
		c0-0.8,0.1-1.5,0.1-2.1c0.5,0,1.1,0,1.8,0c0.2,0,0.3,0,0.4,0.1c-0.4,0.8-0.8,1.4-1,1.6c-0.4,0.5,1.9,1.2,2.4,1.2
		c0.1,0,0.3-0.2,0.5-0.5c1.6,0.9,4,2.3,5.2,2.9c-0.8,1.3-1.4,2.9-1.5,4.9c-2.7-0.2-3.8-0.7-3.9-1.1c-1.1-3.7-9.2-5.9-12.5-5.9
		c-3.3,0-4.1,2.5-2.6,2.7c1.5,0.2,3.5-0.1,4.1,4.4c0.5,3.6,1.2,12.3,14.1,15.7c0,0.8,0,2,0,2.5c-6.7-0.7-12.9-2.1-15.5-4.6
		c-2.4-2.3-1.6-3.9-2.7-3.7c-0.6,0.1-0.3,2.3,0.7,4c1.6,2.7,7.6,7.9,29,7.6c23.6-0.4,22.7,0.3,24.1-3.9c0.1-0.2-6.6,0.5-13.9,0.9
		c0-0.1,0-0.1,0-0.2c0-0.8,0-2.4,0-3.1c14.2-6.7,13.6-28,13.6-28C174,33.8,173.7,33,173.6,32.5z M157.9,65.3
		c-3.1,0.2-6.2,0.3-8.9,0.3c-3.2,0-6.7-0.1-10.1-0.4c0,0,0,0,0,0c0-0.5,0-1.5,0-2.3c2.9,0.6,6.3,1,10.4,1.1c3.3,0,6.1-0.5,8.6-1.4
		c0,0.8,0,2.1,0,2.5C157.9,65.2,157.9,65.3,157.9,65.3z"/>
	<path fill="#ffffff" d="M129.2,34.1c0,0-21.6,3-54.9-0.4c0,0-1.4,0.1-0.1,0.4c2.2,0.6,38.2,3.4,55.7,0.3
		C130,34.5,130.3,34.5,129.2,34.1z"/>
	<path fill="#ffffff" d="M128.6,35.6c0,0-44.3,5.6-113.2,6.4c0,0-3,0.3-0.2,0.5c4.5,0.3,78.9-1.3,114.8-6.5
		C130.1,35.9,130.9,35.8,128.6,35.6z"/>
	<path fill="#ffffff" d="M129.4,35.3c0,0-38.8-2.4-97.5-13.9c0,0-2.6-0.3-0.2,0.4c3.8,1.1,67.4,12.8,98.9,14
		C130.6,35.9,131.3,36,129.4,35.3z"/>
	<path fill="#ffffff" d="M110.4,60.1c-0.3-0.3-0.8-0.1-1.5-0.5c-0.7-0.4-1-1.3-1.4-2.3c-0.4-1-0.9-2.8-0.9-3.6
		c0-0.8-2.4-1.1-3.5-1.7c-1.1-0.6-2.8-1.8-2.5-3.7c0.2-1.7,0.5-4-2-6.9c0.7,0,1.7-0.1,2.8-0.4c1.9-0.6,0.5-3.5,0.5-3.5
		c0.4,2-2.6,2.7-4.1,3c0,0,0,0,0,0c-2.5-2.5-7.2-0.4-11.2-0.9c-1-0.1-2.7-0.6-3.3-0.8c-0.7-0.2-3.9-2.6-5.3-4.3
		c-1.3-1.8-3.1-6.7-2.9-6.9c1.9-1.7,1.7-3.1,1.7-3.1c-1.2-0.3-2.1,0.3-2.7,0.7c0.1-0.3,0.2-0.7,0.5-1.3c0.6-1.2,0.1-2.8,0.5-3.8
		c0.4-1,0.9-2.3,1-3.9c0.1-1.6-0.4-2.8-1.1-2.7c-0.6,0.1-0.3,0.8,0,1.5c0.2,0.7-0.7,3.2-1.1,3.3c-0.4,0.1-1.8-0.5-2.5-1.5
		c-0.7-1-1.5-2.2-1.4-3.3c0-1,0.3-1.5-0.4-1.6c-0.7-0.1-0.7,1.4-0.7,1.9c0,0.5,1.1,2.4,1.1,2.8c0,0.4-1.1,0-1.7-0.5
		c-0.6-0.5-1.4-2-1.7-3.2c-0.3-1.2,0.4-1.7-0.4-1.9c-0.8-0.2-0.8,1.8-0.5,2.5c0.3,0.7,0.9,1.9,1.2,2.5c0.3,0.6-0.4,0.6-1.3,0.6
		c-0.9,0-1.4-0.8-1.7-1.6c-0.2-0.8-0.2-1.6-0.7-1.4c-0.4,0.2-0.5,2,0.9,3.3c1.4,1.3,4.6,0.1,8,3c3.4,2.9-0.1,4.9-0.6,5.1
		c-0.2,0.1-0.4,0.3-0.4,0.5c-1.3,0.4-2.2,1.6-2.5,2.1c-0.5,0.6-2,1.5-2.7,1.6c-0.7,0-0.7,0.6-0.5,1.1c0.3,0.6,0.7,0.3,0.8,0.6
		c-0.2,0.7,0.6,1.3,1.6,1c1-0.3,3.1-0.2,3.1-0.2c0,2.7,1.3,6,1.3,6c-0.8,2.4,0.1,5.8,0.1,6c0,0.3-4,1-4.7,0.9
		c-0.8-0.1-1.5,0-1.7,0.5c-0.9,1.7,0.6,2.2,1.3,3c0.8,0.8,1.1,3.3,1.1,3.6c0,0.3,0.5,0.5,1.1,0.6c0.7,0.1,2.1,1.4,2.3,1.6
		c0.1,0.2,0.3,1.1,0.8,0.9c0,0,0.3-2.1,0-2.3c-0.2-0.3-1.6-0.9-2.1-1.1c-0.4-0.3-0.6-0.9-0.8-1.9c-0.2-1-0.9-1.7-0.8-2.1
		c0.2-0.4,2.2,0.3,5,1.5c2.9,1.2,5.8-0.6,5.8-0.6c2.6,1.3,8.7,1.7,12.7,0.4c1.3,2.3,3.1,3.8,5.5,3.8c2.4,0,6.3,2.4,7.1,2.3
		c0.8,0,1.2,3.6,1.3,4.6c0.1,1.1,2.7,2.1,3,2.2c0.3,0.1,1.7,1.8,1.9,1.6C111.3,62.9,110.7,60.4,110.4,60.1z"/>
	<path fill="#ffffff" d="M66.6,49.3c-0.3-0.3-0.8-0.1-1.5-0.5c-0.7-0.4-1-1.3-1.4-2.3c-0.4-1-0.9-2.8-0.9-3.6c0-0.8-2.4-1.1-3.5-1.7
		c-1.1-0.6-2.8-1.8-2.5-3.7c0.2-1.7,0.5-4-2-6.9c0.7,0,1.7-0.1,2.8-0.4c1.9-0.6,0.5-3.5,0.5-3.5c0.4,2-2.6,2.7-4.1,3c0,0,0,0,0,0
		c-2.5-2.5-7.2-0.4-11.2-0.9c-1-0.1-2.7-0.6-3.3-0.8c-0.7-0.2-3.9-2.6-5.3-4.3c-1.3-1.8-3.1-6.7-2.9-6.9c1.9-1.7,1.7-3.1,1.7-3.1
		c-1.2-0.3-2.1,0.3-2.7,0.7c0.1-0.3,0.2-0.7,0.5-1.3c0.6-1.2,0.1-2.8,0.5-3.8c0.4-1,1-2.3,1-3.9c0.1-1.6-0.4-2.8-1.1-2.7
		c-0.6,0.1-0.3,0.8,0,1.5c0.2,0.7-0.7,3.2-1.1,3.3c-0.4,0.1-1.8-0.5-2.5-1.5c-0.7-1-1.5-2.2-1.4-3.2c0-1,0.3-1.5-0.4-1.6
		c-0.7-0.1-0.7,1.4-0.7,1.9c0,0.5,1.1,2.4,1.1,2.8c0,0.4-1.1,0-1.7-0.5c-0.6-0.5-1.4-2-1.7-3.2c-0.3-1.2,0.4-1.7-0.4-1.9
		c-0.9-0.2-0.8,1.8-0.5,2.5c0.3,0.7,0.9,1.9,1.2,2.5c0.3,0.6-0.4,0.6-1.3,0.6c-0.9,0-1.4-0.8-1.7-1.6c-0.2-0.8-0.2-1.6-0.6-1.4
		c-0.4,0.2-0.5,2,0.9,3.3c1.4,1.3,4.6,0.1,8,3c3.4,2.9-0.1,4.9-0.6,5.1c-0.2,0.1-0.4,0.3-0.4,0.5c-1.3,0.4-2.2,1.6-2.5,2.1
		c-0.5,0.6-2,1.5-2.7,1.6c-0.7,0-0.7,0.6-0.5,1.1c0.3,0.6,0.7,0.3,0.8,0.6c-0.2,0.7,0.6,1.3,1.6,1c1-0.3,3.1-0.2,3.1-0.2
		c0,2.7,1.3,6,1.3,6c-0.8,2.4,0.1,5.8,0.1,6c0,0.3-4,1-4.7,0.9c-0.8-0.1-1.5,0-1.7,0.5c-0.9,1.7,0.6,2.2,1.3,3
		c0.8,0.8,1.1,3.3,1.1,3.6c0,0.3,0.5,0.5,1.1,0.6c0.7,0.1,2.1,1.4,2.3,1.6c0.1,0.2,0.3,1.1,0.8,0.9c0,0,0.3-2.1,0-2.3
		c-0.2-0.3-1.6-0.9-2.1-1.1c-0.4-0.3-0.6-0.9-0.8-1.9c-0.2-1-0.9-1.7-0.8-2.1c0.2-0.4,2.2,0.3,5,1.5c2.9,1.2,5.8-0.6,5.8-0.6
		c2.6,1.3,8.7,1.7,12.7,0.4c1.3,2.3,3.1,3.8,5.5,3.8c2.4,0,6.3,2.4,7.1,2.3c0.8,0,1.2,3.5,1.3,4.6c0.1,1.1,2.7,2.1,3,2.2
		c0.3,0.1,1.7,1.8,1.9,1.6C67.5,52.1,66.9,49.6,66.6,49.3z"/>
	<path fill="#ffffff" d="M47.5,66.3c-0.3-0.3-0.8-0.1-1.5-0.5c-0.7-0.4-1-1.3-1.4-2.3c-0.4-1-0.9-2.8-0.9-3.6c0-0.8-2.4-1.1-3.5-1.7
		c-1.1-0.6-2.8-1.8-2.5-3.7c0.2-1.7,0.5-4-2-6.9c0.7,0,1.7-0.1,2.8-0.4c1.9-0.6,0.5-3.5,0.5-3.5c0.4,2-2.6,2.7-4.1,3c0,0,0,0,0,0
		c-2.5-2.5-7.2-0.4-11.2-0.9c-1-0.1-2.7-0.6-3.3-0.8c-0.7-0.2-3.9-2.6-5.3-4.3c-1.3-1.8-3.1-6.7-2.9-6.9c1.9-1.7,1.7-3.1,1.7-3.1
		c-1.2-0.3-2.1,0.3-2.7,0.7c0.1-0.3,0.2-0.7,0.5-1.3c0.6-1.2,0.1-2.8,0.5-3.8c0.4-1,0.9-2.3,1-3.9c0.1-1.6-0.4-2.8-1.1-2.7
		c-0.6,0.1-0.3,0.8,0,1.5c0.2,0.7-0.7,3.2-1.1,3.3c-0.4,0.1-1.8-0.5-2.5-1.5c-0.7-1-1.5-2.2-1.4-3.3c0-1,0.3-1.5-0.4-1.6
		C6.1,17.9,6,19.3,6,19.8c0,0.5,1.1,2.4,1.1,2.8c0,0.4-1.1,0-1.7-0.5c-0.6-0.5-1.4-2-1.7-3.2C3.3,17.7,4,17.2,3.2,17
		c-0.9-0.2-0.8,1.8-0.5,2.5c0.3,0.7,0.9,1.9,1.2,2.5c0.3,0.6-0.4,0.6-1.3,0.6c-0.9,0-1.4-0.8-1.7-1.6c-0.2-0.8-0.2-1.6-0.7-1.4
		c-0.4,0.2-0.5,2,0.9,3.3c1.4,1.3,4.6,0.1,8,3c3.4,2.9-0.1,4.9-0.6,5.1c-0.2,0.1-0.4,0.3-0.4,0.5C6.9,32,6,33.1,5.7,33.6
		c-0.5,0.6-2,1.5-2.7,1.6c-0.7,0-0.7,0.7-0.5,1.1c0.3,0.6,0.7,0.3,0.8,0.6c-0.2,0.7,0.6,1.3,1.6,1c1-0.3,3.1-0.2,3.1-0.2
		c0,2.7,1.3,6,1.3,6c-0.8,2.4,0.1,5.8,0.1,6c0,0.3-4,1-4.7,0.9c-0.8-0.1-1.5,0.1-1.7,0.5c-0.9,1.7,0.6,2.2,1.3,3
		c0.8,0.8,1.1,3.3,1.1,3.6c0,0.3,0.5,0.5,1.1,0.6c0.7,0.1,2.1,1.4,2.3,1.6c0.1,0.2,0.3,1.1,0.8,0.9c0,0,0.3-2.1,0-2.3
		c-0.2-0.3-1.6-0.9-2.1-1.1c-0.4-0.3-0.6-0.9-0.8-1.9c-0.2-1-0.9-1.7-0.8-2.1c0.2-0.4,2.2,0.3,5,1.5c2.9,1.2,5.8-0.6,5.8-0.6
		c2.6,1.3,8.7,1.7,12.7,0.4c1.3,2.3,3.1,3.8,5.5,3.8c2.4,0,6.3,2.4,7.1,2.3c0.8,0,1.2,3.5,1.3,4.6c0.1,1.1,2.7,2.1,3,2.2
		c0.3,0.1,1.7,1.8,1.9,1.6C48.5,69,47.8,66.6,47.5,66.3z"/>
</g>
<path fill="#ffffff" d="M-41.8,15c-0.8-0.8-1.6-0.2-1.8-0.3c-0.2-0.1-0.9-0.5-2-2.4c-1.1-1.9-1.1-3.8-4.9-4.9
	c-3.8-1.1-5.4,1.2-5.4,1.2s-0.7-0.4-0.9-0.3c-0.2,0.1-1,1.8-0.9,2.1c0.1,0.3,1,0.7,1,0.7c-0.3,0.3-0.3,0.9-0.3,1.1
	c-0.1,0.6-0.5,1.2-0.9,0.5c-0.4-0.7-0.9-1.1-1.5-0.8c-0.5,0.4-0.7,1.7,1.2,2c0,0-0.5,0.3-0.3,0.7c0,0-1.1,0.4-0.6,1.4
	c0,0-0.7,0.6,0,1.4c0,0-0.8,0.2-0.3,1c0,0-0.5,0.6,0.2,1.2c0,0-0.3,0.9-0.9,0.6c-0.6-0.3,0.3,0.8,1.1,0.4c0,0,0.4,0.7,1,0.2
	c0,0-2,2.6-2.6,4.4c-0.6,1.8-6.9,6.6-4.5,11c0,0-0.2,2.4,0.4,2.5c0,0,0,0,0,0c-0.2,1.3-0.5,2.8-1,3.2c-0.8,0.6-1.1,0.8-1.1,2.4
	c0,1.7,0.3,1.2,1.5,1.5c0.3,0.1,1.6,0.2,3.3,0.2c0.5,0.9,1.4,2,2.7,3.1c0,0,0.6,2.7,0.8,3.6c0.2,0.9-1.1,0.6-1.1,1.5
	c0,0.9-0.9,2.1,1.1,2.3c0,0,0.5,3.8,0.2,4.2c-0.3,0.5-1.4,0.3-2.4,0.8c-1.1,0.5-2.9,3.3,0.2,4.2c3,0.9,5.8-0.2,6.8,0
	c1.1,0.2,2,0.2,2.1-0.5c0.5-2,0.3-2.9-0.2-4.2c-0.5-1.4,0-3.9,0-3.9s0.6,0.3,0.8-0.8c0.2-1.1-0.3-2.4-1.1-2.7
	c-0.8-0.3,0.2-3.8,0-4.2c-0.1-0.4,2.3-1.2,3.5-3.2c0.8,0,1.3-0.1,1.3-0.2c0.2-0.5,1.1-3-0.6-3.2c0,0-0.2-2.3-1-4.1
	c0.2-0.6,0-2.6,0-2.6c1.3-2.3,1.1-9-0.3-12.4c0,0,0.4,0.1,0.8-0.2c0.6-0.3,1.2-1.1,0.4-1.9c0.8-0.1,0.8-1.7,0-1.9
	c-0.5-0.2-0.5,0-0.3-0.3c0.2-0.2,0.4-1-0.3-1.2c0,0,0.4-0.5-0.2-1c0,0,0.5-0.9-0.2-1.4c-0.1,0-0.1-0.1-0.1-0.1
	c0.2,0.1,0.8,0.3,1-0.4c0.5-1.1,0.3-1.7,0-1.8c-0.3-0.1-0.6-0.9,0-0.8c0.5,0.2,1,1.2,3.5,2.6c0,0-0.3,1.1,0.4,1.6
	c0.7,0.5,1.6,0.7,2.3,0C-41,16.4-41.1,15.8-41.8,15z"/>
<path fill="#221714" d="M169.1,84.3c0-0.8-0.3-1.6-1-2.4c-0.3-0.3-0.6-0.7-0.9-0.9c-0.3-0.2-0.4-0.4-0.6-0.4c-0.2-0.1-0.3-0.1-0.4,0
	c-0.1-0.1-0.3-0.1-0.5-0.1c-0.3,0-0.7,0.1-1.1,0.4c-0.6,0.4-1,0.8-1.3,1.4c-0.3,0.6-0.3,1.2-0.2,1.9l0,0v0c0,0.1,0.1,0.3,0.2,0.5
	l0,0c0.1,0.3,0.2,0.6,0.4,0.8c0.1,0.2,0.2,0.4,0.3,0.5c0.1,0.2,0.1,0.4,0.1,0.6c0,0.2-0.1,0.4-0.3,0.6c-0.1,0.1-0.2,0.2-0.3,0.3
	l-0.2,0.2l0.3,0c0.4,0,0.7-0.2,1-0.5c0.2-0.2,0.3-0.5,0.4-0.8c0,0,0.1,0.1,0.2,0.2c0,0,0,0,0,0c0,0,0.1,0.1,0.1,0.1v0c0,0,0,0,0,0h0
	c0,0,0.1,0.1,0.2,0.2v0c0,0,0,0,0,0c0,0,0.1,0,0.1,0.1c0.1,0,0.1,0.1,0.2,0.2l0,0c0,0,0,0,0,0c0.1,0.1,0.3,0.3,0.5,0.5h0
	c0,0,0.1,0.1,0.3,0.1c0.2,0,0.3,0,0.5,0c0.2-0.1,0.4-0.3,0.7-0.9l0,0h0c0.1,0,0.1,0,0.1,0c0.1,0,0.2-0.1,0.2-0.2h0c0,0,0,0,0,0h0
	c0,0,0,0,0,0c0,0,0,0,0-0.1c0.1-0.2,0.3-0.5,0.4-0.8c0,0,0,0.1,0,0.1c0,0.2,0,0.4-0.1,0.5l0.1,0.1c0.5-0.6,0.8-1,0.8-1.5
	C169.2,84.6,169.2,84.5,169.1,84.3C169.1,84.3,169.1,84.3,169.1,84.3z M163.4,84.6c-0.1-0.2-0.1-0.3-0.2-0.4l0.1,0c0,0,0,0,0,0
	c0.2,0,0.3,0,0.5-0.1c0.1,0,0.1,0,0.2,0c0.2,0,0.4-0.1,0.5-0.1c0.2,0,0.4-0.1,0.6-0.2c0,0,0,0,0,0c0.2-0.1,0.4-0.1,0.6-0.2
	c0.2-0.1,0.4-0.2,0.6-0.2c0.3-0.1,0.5-0.2,0.8-0.4l0.2-0.1c0,0,0.1,0,0.1,0.1c0.1,0.1,0.1,0.2,0.1,0.2v0c0,0,0,0,0,0
	c0,0.1-0.1,0.1-0.3,0.3l0,0v0c0,0.1,0,0.2,0,0.3c0,0.3,0,0.7-0.1,1c-0.1,0.1-0.4,0.2-1,0.4c-0.1,0-0.1,0-0.2,0
	c-0.1-0.1-0.2-0.2-0.4-0.5c-0.2-0.3-0.3-0.5-0.5-0.4c0,0-0.1,0.1-0.1,0.1c0,0.1,0,0.2,0,0.5c0,0.2,0,0.3,0,0.4
	c0,0.1-0.2,0.1-0.5,0.2c-0.1,0-0.2,0-0.3,0.1h0c-0.1,0-0.2,0-0.2,0c0,0-0.1-0.2-0.3-0.4c-0.2-0.3-0.4-0.5-0.4-0.5
	C163.5,84.6,163.5,84.6,163.4,84.6C163.4,84.6,163.4,84.6,163.4,84.6z M164.3,83.9c-0.1,0-0.2,0-0.2,0c0,0,0-0.1,0.1-0.1
	c0,0,0,0,0,0h0C164.2,83.8,164.2,83.9,164.3,83.9z M165,83.3c0.1,0.1,0.2,0.2,0.2,0.3l0,0l0,0c0-0.1,0-0.1,0.1-0.2
	c0,0,0.1-0.2,0.1-0.5l0,0c0.2-0.1,0.3-0.3,0.5-0.5c0.1-0.2,0.2-0.4,0.3-0.7c0.1,0.2,0.2,0.3,0.4,0.4c0,0,0,0,0,0h0
	c-0.1,0.2-0.1,0.4-0.2,0.7c-0.1,0.2-0.2,0.4-0.3,0.5l0,0c-0.3,0.1-0.6,0.2-0.8,0.3c-0.1,0-0.2,0.1-0.2,0.1l0,0
	c-0.2,0-0.3-0.1-0.5-0.2c0.1-0.1,0.3-0.2,0.5-0.3c0,0,0,0,0,0l0,0L165,83.3z M166.5,83.1c0.2-0.3,0.3-0.5,0.3-0.7
	c0.1,0.1,0.3,0.2,0.4,0.3c0,0,0.1,0.1,0.1,0.1c0,0-0.1,0-0.2,0.1C166.9,83,166.7,83.1,166.5,83.1z M164.1,87.3
	c-0.1,0.1-0.2,0.1-0.3,0.1c0.2-0.3,0.4-0.5,0.4-0.8l0-0.1c0-0.2,0-0.4-0.1-0.6c0-0.1-0.1-0.3-0.3-0.5c-0.1-0.2-0.3-0.5-0.4-0.7
	c0,0.1,0.2,0.2,0.3,0.5c0.2,0.2,0.2,0.4,0.3,0.4l0,0c0.1,0,0.2,0.1,0.3,0l0,0c0,0.1,0.1,0.1,0.1,0.2v0c0,0,0,0,0,0c0,0,0,0,0,0
	l0,0.2c0,0.1,0,0.3,0,0.4C164.5,86.8,164.4,87.1,164.1,87.3L164.1,87.3z M164.7,86.6c0,0.1-0.1,0.2-0.2,0.3
	c-0.1,0.1-0.1,0.2-0.2,0.2c0.2-0.2,0.3-0.4,0.3-0.8c0-0.1,0-0.3,0-0.4l0,0c0.1,0.1,0.2,0.2,0.2,0.3l0,0
	C164.8,86.4,164.8,86.5,164.7,86.6z M165.1,86.3C165.1,86.4,165.1,86.4,165.1,86.3c-0.1,0-0.1,0-0.2-0.1l0,0v0c0,0,0-0.1,0-0.1
	c0,0,0.1-0.1,0.1-0.2c-0.1,0-0.3,0-0.4-0.1c0,0,0-0.1-0.1-0.1c0-0.1-0.1-0.1-0.1-0.2c0.1,0,0.1,0,0.2,0c0.2-0.1,0.3-0.1,0.4-0.2
	c0,0,0.1,0,0.1-0.1c0,0.2,0,0.3,0,0.5c0,0.1,0,0.1,0,0.2v0c0,0,0,0.1,0,0.1C165.2,86.1,165.1,86.2,165.1,86.3z M165.8,85.3
	c0.1,0.1,0.2,0.2,0.2,0.3v0h0c0,0,0,0,0,0c0,0,0,0,0,0c0,0,0,0,0,0.1c0,0,0,0.1-0.1,0.1c-0.1,0-0.2,0-0.2,0c0,0-0.1,0-0.2,0.1
	c-0.1,0.1-0.2,0.1-0.2,0c0,0,0,0,0-0.1c0,0,0-0.1,0-0.2c0-0.1,0-0.3,0-0.5c0-0.3,0-0.5,0-0.5c0,0,0,0,0.1,0c0,0,0,0,0,0h0
	L165.8,85.3L165.8,85.3L165.8,85.3z M166.3,85.9C166.3,85.9,166.3,85.9,166.3,85.9C166.3,85.9,166.3,85.9,166.3,85.9
	C166.2,85.9,166.2,85.9,166.3,85.9L166.3,85.9c0.1-0.1,0.2,0,0.3,0c0,0,0,0,0.1,0c0,0,0,0,0,0c0,0-0.1,0-0.1,0l0,0.2
	c-0.1,0.1-0.2,0.1-0.3,0.2c0,0,0,0,0,0c0,0,0,0,0,0c0,0,0,0,0,0l0-0.1c0,0,0,0,0,0C166.1,86,166.2,85.9,166.3,85.9L166.3,85.9z
	 M166.6,86l0-0.1c0.1,0,0.1,0,0.2,0C166.7,85.9,166.7,86,166.6,86z M166.8,86c0.1,0,0.1,0,0.2,0.1l0,0.1c0,0,0,0.1,0,0.1
	c-0.2,0.1-0.3,0.1-0.3,0.1c0,0,0-0.1-0.1-0.2C166.7,86.1,166.8,86,166.8,86z M166.6,86.3L166.6,86.3c0,0,0,0.1-0.1,0.1
	c-0.1,0-0.1,0-0.2,0c0,0-0.1-0.1-0.1-0.1c0.1,0,0.2-0.1,0.3-0.2C166.6,86.2,166.6,86.3,166.6,86.3z M166.3,86.5c0,0-0.1,0-0.1,0.1
	c-0.1,0-0.1,0-0.1,0c0,0-0.1-0.1-0.1-0.1c0.1,0,0.2-0.1,0.2-0.1C166.2,86.4,166.2,86.4,166.3,86.5z M166.1,86.3
	c-0.1,0-0.1,0.1-0.2,0.1c0,0,0,0,0,0l-0.1-0.2c0,0,0,0,0,0v0c0,0,0-0.1,0.1-0.1c0,0,0.1,0,0.1,0c0,0,0,0,0,0L166.1,86.3
	C166,86.2,166.1,86.2,166.1,86.3C166.1,86.2,166.1,86.3,166.1,86.3z M165.7,86.2l0.1,0.2v0c0,0,0,0,0,0c-0.1,0-0.2,0.1-0.2,0.1
	c0,0,0,0,0,0v0l-0.1-0.2c0,0,0-0.1,0.1-0.1C165.7,86.2,165.7,86.2,165.7,86.2z M165.6,86.1c0,0,0.1-0.1,0.1-0.1c0,0,0,0,0,0
	c0,0,0,0-0.1,0.1C165.7,86.1,165.7,86.1,165.6,86.1z M165.3,86.5C165.3,86.5,165.3,86.5,165.3,86.5
	C165.3,86.5,165.3,86.5,165.3,86.5C165.3,86.5,165.3,86.5,165.3,86.5c0-0.1,0.1-0.1,0.1-0.1c0-0.1,0.1-0.1,0.1-0.1l0,0.1
	c0,0,0,0,0,0C165.4,86.5,165.3,86.5,165.3,86.5C165.3,86.6,165.3,86.6,165.3,86.5z M165.6,86.8c0,0-0.1,0-0.1,0l0,0c0,0,0,0,0,0l0,0
	c0,0-0.1-0.1-0.1-0.1c0.1,0,0.1,0,0.2-0.1C165.6,86.6,165.6,86.7,165.6,86.8C165.6,86.7,165.6,86.7,165.6,86.8z M165.6,86.5
	c0.1,0,0.2-0.1,0.2-0.1c0,0.1,0,0.1,0.1,0.1c0,0-0.1,0-0.1,0.1c0,0-0.1,0-0.1,0l0,0C165.7,86.6,165.6,86.6,165.6,86.5z M165.7,86.8
	c0,0,0.1,0,0.1,0c0.1,0,0.1,0,0.1-0.1c0,0,0,0,0,0c0,0,0,0,0,0h0c0,0,0.1,0,0.2-0.1c0.1,0,0.1-0.1,0.2-0.1c0.1,0,0.1,0,0.2,0
	c0.1,0,0.1,0,0.1-0.1c0,0,0,0,0,0l0-0.1c0.1,0,0.1,0,0.3-0.1c0,0,0,0,0,0.1c-0.1,0.1-0.3,0.2-0.6,0.3
	C166.1,86.7,165.9,86.8,165.7,86.8C165.7,86.8,165.7,86.8,165.7,86.8z M167.5,86.6c-0.3,0.5-0.5,0.8-0.7,0.9c-0.1,0-0.3,0.1-0.4,0
	c-0.1,0-0.2,0-0.2-0.1c-0.2-0.2-0.3-0.3-0.4-0.4c0.2,0,0.5-0.1,0.7-0.2c0.1,0,0.2-0.1,0.5-0.2c0.2-0.1,0.2-0.2,0.3-0.4v-0.1
	C167.4,86.2,167.5,86.4,167.5,86.6C167.5,86.6,167.5,86.6,167.5,86.6z M168.3,85.5c-0.2,0.4-0.3,0.7-0.4,0.9c-0.1-0.3-0.4-0.6-1-0.7
	c-0.2,0-0.4-0.1-0.6-0.1l-0.2,0c-0.1-0.1-0.1-0.2-0.2-0.3h0l-0.4-0.5v0c0,0,0,0-0.1-0.1l0,0c-0.1,0-0.1,0-0.2,0c0,0,0,0,0,0
	c0-0.2,0-0.3,0-0.4c0,0,0-0.1,0-0.1c0.1,0,0.2,0.1,0.4,0.4c0.2,0.3,0.3,0.4,0.4,0.5c0.1,0.1,0.2,0.1,0.3,0.1
	c0.7-0.2,1.1-0.3,1.1-0.4c0.1-0.3,0.1-0.6,0.1-1c0-0.1,0-0.2,0-0.3c0.1-0.1,0.2-0.2,0.3-0.2c0.1,0.1,0.1,0.2,0.2,0.4
	c0,0,0,0.1,0,0.1c0,0.1,0,0.2,0,0.2c0,0.5-0.2,1-0.7,1.3l-0.1,0l0,0l0.1,0c0.4-0.1,0.7-0.2,0.9-0.4c0.1,0,0.1-0.1,0.2-0.1
	C168.3,85.2,168.3,85.3,168.3,85.5L168.3,85.5z M168.4,86c0-0.1,0-0.2,0-0.3c0-0.1,0-0.2,0-0.4c-0.1-0.6-0.3-1.3-0.7-2.1
	c0,0,0,0,0,0c0,0,0,0,0,0l0,0c0-0.1-0.1-0.2-0.2-0.4c0,0-0.1-0.1-0.1-0.1c-0.1-0.1-0.1-0.1-0.2-0.2c-0.1-0.1-0.2-0.2-0.4-0.3
	c0,0,0,0,0,0c-0.1-0.1-0.2-0.1-0.2-0.1c-0.1-0.1-0.2-0.2-0.3-0.3c-0.1-0.1-0.1-0.2-0.2-0.3l-0.1,0c0,0.2-0.1,0.5-0.2,0.7
	c-0.2,0.3-0.3,0.5-0.6,0.6L165,83c-0.3,0.2-0.5,0.3-0.6,0.4c0,0-0.1,0.1-0.1,0.1c-0.1,0.1-0.2,0.2-0.2,0.2c-0.1,0.1-0.1,0.2-0.1,0.2
	c0,0,0,0,0,0c0-0.1,0-0.2,0-0.3c0-0.1,0.1-0.3,0.1-0.4c0.1-0.3,0.2-0.6,0.4-0.9c0.2-0.2,0.4-0.4,0.6-0.5l0-0.1
	c-0.2,0.1-0.4,0.3-0.6,0.5c-0.2,0.3-0.3,0.6-0.4,0.9c-0.1,0.3-0.1,0.5-0.1,0.7c0,0-0.1,0-0.1,0l0,0c-0.1-0.6,0-1.3,0.5-1.8
	c0.2-0.3,0.5-0.5,0.7-0.7l0,0c-0.3,0.2-0.5,0.4-0.8,0.7c-0.4,0.6-0.6,1.1-0.5,1.7c-0.1-0.3-0.2-0.5-0.2-0.8c0-0.3,0-0.5,0.2-0.7l0,0
	c-0.1,0.2-0.2,0.4-0.2,0.7c0,0.3,0.1,0.6,0.3,0.9c-0.1,0-0.3,0-0.4,0c0-0.2-0.1-0.4-0.1-0.6c0-0.5,0.1-1,0.4-1.4
	c0.3-0.4,0.6-0.8,1.1-1.1c0.4-0.3,0.8-0.4,1.1-0.3c0.2,0,0.3,0.1,0.4,0.1l0.1,0.1l0.1-0.1c0.1-0.1,0.2-0.1,0.3,0
	c0.1,0.1,0.3,0.2,0.5,0.4c0.2,0.2,0.4,0.4,0.6,0.6l0,0c0.2,0.3,0.4,0.7,0.5,1c0.5,1,0.6,1.9,0.4,2.6l0.1,0c0.2-0.7,0-1.6-0.4-2.6
	c-0.1-0.3-0.3-0.6-0.5-0.9c0.1,0.1,0.1,0.1,0.2,0.2c0.8,1,1.1,1.9,1,2.7l0.1,0C169.1,85.1,168.9,85.5,168.4,86z M167.2,82L167.2,82
	c0.3,0.4,0.5,0.9,0.8,1.4c0.5,1,0.7,1.8,0.5,2.3l0.1,0c0.2-0.5,0-1.3-0.5-2.3C167.8,82.8,167.5,82.4,167.2,82z M166.1,84.9
	c0.1,0,0.3-0.1,0.4-0.1c0.2-0.1,0.4-0.1,0.4-0.2c0-0.1,0-0.3,0-0.6v0c0-0.3-0.1-0.4-0.1-0.4h0c-0.4,0.1-0.8,0.2-1.2,0.4l0,0v0
	c0,0.1,0.1,0.3,0.2,0.6C166,84.8,166.1,84.9,166.1,84.9z M166.3,83.8c0.1,0,0.2,0,0.3,0c0,0-0.1,0-0.1,0c-0.1,0-0.1,0.1-0.1,0.1
	c0.1,0,0.2,0,0.2,0c0,0,0.1,0.1,0.1,0.1c0,0.1,0,0.1-0.1,0.1c-0.1,0-0.1,0-0.2-0.1l0.1,0.1c0.1,0.1,0.1,0.1,0.2,0.1
	c-0.1,0.1-0.2,0.2-0.4,0.1c-0.2,0-0.3-0.1-0.3-0.3C166,84,166.1,83.9,166.3,83.8z M164.2,85.3C164.2,85.3,164.2,85.3,164.2,85.3
	c0.1,0.1,0.1,0.1,0.1,0.1c0.2,0,0.3,0,0.5-0.1c0.2-0.1,0.2-0.1,0.2-0.1c0-0.1,0-0.2-0.1-0.5c-0.1-0.3-0.1-0.4-0.2-0.4
	c-0.1,0-0.3,0-0.5,0.1c-0.1,0-0.2,0-0.2,0.1c0,0,0,0-0.1,0h0l0,0c0,0,0,0.1,0,0.1c0,0.1,0.1,0.3,0.2,0.5
	C164.1,85.1,164.1,85.2,164.2,85.3z M164.3,84.5l0.2-0.1l-0.1,0.1c0,0.1,0,0.1,0,0.1c0.1,0,0.1-0.1,0.2,0c0,0,0.1,0,0.1,0.1
	c0,0,0,0.1,0,0.1c0,0-0.1,0-0.2,0l0.1,0.1c0.1,0.1,0.1,0.1,0.2,0.1c0,0.1-0.1,0.2-0.3,0.1c-0.2,0-0.2-0.1-0.3-0.3
	C164.2,84.7,164.2,84.6,164.3,84.5z M145.8,82.6c0.1,0,0.1,0,0.1,0c0,0,0,0,0,0c0,0,0,0,0,0c0,0-0.1,0-0.2,0c0,0-0.1,0-0.1,0h0
	l0,0.1l0,0l0,0l0,0C145.6,82.7,145.7,82.6,145.8,82.6z M145.7,82.6C145.7,82.6,145.7,82.6,145.7,82.6c0.1,0,0.1,0,0.2,0c0,0,0,0,0,0
	C145.8,82.6,145.8,82.6,145.7,82.6C145.7,82.6,145.7,82.6,145.7,82.6L145.7,82.6z M143.5,83.2c-0.1,0-0.1,0-0.2,0l0,0
	c-0.2,0.1-0.5,0.3-0.5,0.7c0,0.1,0,0.2,0.1,0.3c0.1,0.3,0.4,0.5,0.7,0.5c0,0,0,0,0,0c0.1,0,0.2,0,0.3,0c0.2,0,0.3-0.1,0.3-0.2
	c0.1-0.1,0.1-0.2,0.1-0.4c0-0.1,0-0.1,0-0.2C144.1,83.5,143.8,83.3,143.5,83.2z M143.9,84.3c0,0.1-0.1,0.1-0.2,0.2
	c-0.1,0-0.2,0-0.2,0c-0.2,0-0.4-0.1-0.5-0.3c0-0.1,0-0.1,0-0.2c0-0.2,0.2-0.4,0.4-0.5c0,0,0.1,0,0.1,0c0.2,0,0.5,0.2,0.5,0.4
	c0,0.1,0,0.1,0,0.2C144,84.1,144,84.2,143.9,84.3z M144.4,83c0.1,0,0.2,0,0.2-0.1c0-0.1-0.1-0.4-0.1-0.5c0,0-0.3,0-0.4,0
	C144.2,82.5,144.3,83,144.4,83z M143.4,83.2C143.4,83.2,143.4,83.2,143.4,83.2L143.4,83.2C143.5,83.1,143.4,83.1,143.4,83.2
	c-0.2,0-0.4,0.1-0.4,0.1l0,0C143,83.2,143.3,83.2,143.4,83.2z M143.8,84c0,0-0.1,0-0.1,0c0,0,0,0,0,0c0,0,0,0,0,0
	c0-0.1-0.1-0.1-0.1-0.1c0,0,0,0,0-0.1c0-0.1,0.1-0.2,0.1-0.2l0,0l0,0c0,0-0.1,0-0.1,0.1c0-0.1,0-0.2-0.1-0.2l0,0
	c0,0,0.1,0.1,0.1,0.2c0,0,0,0,0,0c0,0,0,0,0,0.1c0,0,0,0,0,0c0,0-0.1,0-0.1,0.1c0,0-0.1,0-0.1,0.1c0,0-0.1,0.1-0.1,0.1l0,0
	c0,0,0,0,0,0c0,0,0,0,0,0c0,0,0-0.1,0-0.1l0,0l0,0c0,0,0,0.1,0,0.1c0,0-0.1,0-0.1,0l0,0c0,0,0,0,0.1-0.1c0,0,0,0,0,0
	c0,0,0.1-0.1,0.1-0.1c0,0,0,0,0.1-0.1c0,0,0,0,0,0c0,0.1,0,0.1,0.1,0.2c0,0,0,0,0.1,0c0,0,0,0.1,0,0.1h0c0,0,0,0,0,0c0,0,0,0,0,0.1
	c0,0,0,0,0,0c0,0,0,0,0,0c0,0,0,0,0,0c0,0,0,0,0,0l0,0c0,0,0,0,0.1-0.1c0,0,0,0.1,0,0.1h0c0,0,0-0.1,0-0.1c0,0,0.1,0,0.1,0
	c0,0,0,0,0,0c0,0,0,0,0,0l0,0c0,0,0,0,0,0c0,0-0.1,0-0.1-0.1l0,0c0,0,0-0.1,0-0.1c0,0,0.1-0.1,0.1-0.1C143.7,84,143.8,84,143.8,84
	C143.8,84,143.8,84,143.8,84c0.1,0,0.1,0,0.1,0L143.8,84C143.9,84,143.9,84,143.8,84z M144.2,82.3c0.1,0,0.2,0.1,0.3-0.1
	c0-0.1,0-0.2-0.1-0.3c0,0-0.3,0-0.4,0C144,82,144.1,82.3,144.2,82.3z M147.1,81.7c-0.6-0.4-1.2-0.7-1.9-0.7c-0.4,0-0.8,0.1-1.3,0.2
	c0,0-0.5,0.1-1,0.4c-0.5,0.3-1,0.7-1.2,1.4c0,0.1,0,0.3,0,0.4c0,1.1,0.7,2.4,1.5,2.9c0.6,0.4,1.1,0.7,1.8,0.7c0.3,0,0.7-0.1,1.1-0.2
	c1.4-0.5,1.6-2.1,1.6-2.4c0-0.1,0.1-0.5,0.1-0.9C147.8,82.9,147.7,82.1,147.1,81.7z M147.6,83.5c0,0.4-0.1,0.8-0.1,0.9
	c0,0.3-0.3,1.7-1.5,2.2c-0.4,0.1-0.7,0.2-1,0.2c-0.6,0-1.1-0.3-1.7-0.7c-0.4-0.3-0.9-0.9-1.2-1.6c-0.1-0.8,0.1-1.8,0.5-2.2
	c-0.2,0.1-0.4,0.3-0.6,0.5c0.2-0.4,0.6-0.7,1-0.9c0.2-0.1,0.3-0.2,0.5-0.2c0.1,0.1,0.3,0.4,0.3,0.4c0-0.2,0-0.4,0-0.5
	c0.1,0,0.1,0,0.1,0l0,0h0c0.2-0.1,0.4-0.1,0.5-0.1c0.1,0.1,0.2,0.4,0.3,0.4c0.1-0.2,0.1-0.4,0.1-0.5c0.1,0,0.2,0,0.3,0
	c0.5,0,1,0.1,1.4,0.4c-0.2,0-0.5,0-0.8,0.2c0.7,0,1.4,0.5,1.7,1C147.6,83,147.6,83.3,147.6,83.5z M147.1,83.4
	c-0.1-0.4-0.5-0.8-0.9-1.1c-0.4-0.3-0.8-0.4-0.8-0.4l-0.1,0l0,0.1c-0.2,0.7-0.4,1.1-0.4,1.6c0,0.2,0,0.3,0.1,0.5
	c0.1,0.2,0.3,0.4,0.5,0.5c0.2,0.1,0.4,0.2,0.7,0.2c0,0.1,0,0.2,0,0.3c0.2-0.1,0.3-0.2,0.3-0.4c0,0,0.1,0,0.1,0c0,0.1,0.1,0.3,0,0.5
	c0.3-0.3,0.3-0.5,0.3-0.7c0,0,0,0,0,0c0.2,0.4,0.2,0.5,0.2,0.5s0.2-0.5,0.1-0.9c0-0.1,0.1-0.3,0.1-0.4
	C147.1,83.5,147.1,83.4,147.1,83.4z M146.2,84.5c0,0-0.1,0-0.1,0c-0.2,0-0.4-0.1-0.6-0.2c-0.2-0.1-0.4-0.3-0.4-0.4
	c0-0.2-0.1-0.3-0.1-0.5c0-0.4,0.2-0.7,0.4-1.4c0,0,0.1,0,0.1,0.1c0.2,0.1,0.5,0.3,0.8,0.5c0.3,0.2,0.5,0.5,0.5,0.7c0,0,0,0.1,0,0.1
	C146.9,83.9,146.7,84.4,146.2,84.5z M146.5,85.2c-0.1-0.1-0.2-0.1-0.4-0.1c-0.1,0-0.2,0-0.4,0c0,0,0-0.1,0-0.1c0-0.1,0-0.2-0.1-0.3
	c-0.1-0.1-0.2-0.3-0.3-0.4c-0.1-0.1-0.3-0.2-0.4-0.2c0,0-0.1,0-0.1,0l0,0c-0.1,0-0.2,0.1-0.3,0.2c0.1-0.1,0.1-0.3,0.1-0.4
	c0-0.1,0-0.1,0-0.2c-0.1-0.4-0.5-0.8-0.9-1.1c-0.4-0.3-0.7-0.5-0.7-0.5l-0.1-0.1l-0.1,0.1c-0.3,0.6-0.4,1.1-0.4,1.6
	c0,0.3,0,0.6,0.1,0.7c0.1,0.1,0.2,0.3,0.3,0.4c0,0.2,0.1,0.5,0.4,0.7c-0.1-0.2-0.1-0.4-0.1-0.5c0,0,0,0,0.1,0
	c0.1,0.2,0.3,0.4,0.5,0.4c-0.1-0.2-0.1-0.3,0-0.4c0,0,0.1,0,0.1,0c0,0,0,0,0,0c0,0.1,0.1,0.1,0.3,0.2c-0.1-0.1-0.1-0.3,0-0.4
	c0.1-0.1,0.1-0.2,0.2-0.2c0,0,0-0.1,0.1-0.1c-0.1,0.2-0.1,0.3-0.1,0.5c0,0.1,0,0.2,0,0.2c0,0.1,0.1,0.2,0.2,0.2l0,0
	c0,0-0.1,0-0.1,0.1c-0.1,0.1-0.2,0.1-0.3,0.2l0,0l0,0c-0.1,0.1-0.1,0.2-0.1,0.3c0,0,0,0.1,0,0.1c0,0.1,0.1,0.1,0.1,0.2
	c0.1,0,0.1,0.1,0.2,0.1c0,0,0,0,0,0c0.1,0,0.3-0.1,0.5-0.1c0.2-0.1,0.4-0.1,0.6-0.2c0.3-0.1,0.6-0.1,0.9-0.2c0.1,0,0.2-0.1,0.3-0.1
	c0.1-0.1,0.1-0.1,0.1-0.3c0,0,0-0.1,0-0.1C146.7,85.4,146.6,85.3,146.5,85.2z M144.2,84.6c-0.1,0.2-0.3,0.3-0.4,0.4
	c-0.1,0-0.1,0-0.2,0c-0.3,0-0.7-0.2-0.9-0.5c-0.1-0.1-0.1-0.4-0.1-0.6c0-0.4,0.1-0.9,0.3-1.4c0,0,0.1,0,0.1,0.1
	c0.2,0.1,0.5,0.3,0.7,0.6c0.3,0.3,0.5,0.5,0.5,0.8c0,0,0,0.1,0,0.1C144.4,84.2,144.3,84.4,144.2,84.6z M146.1,85.4c0,0,0,0.1,0,0.1
	c0,0,0,0.1,0,0.1c0,0,0,0-0.1,0c-0.1,0-0.1,0-0.2,0c0,0,0,0,0,0c0,0,0-0.1,0-0.1c0,0,0,0,0,0c0-0.1,0-0.1,0-0.2
	C145.9,85.4,146,85.4,146.1,85.4z M145.7,85.4c0,0,0,0.1,0,0.1c0,0,0,0,0,0.1c0,0,0,0.1,0,0.1c0,0-0.1,0.1-0.1,0.1c0,0-0.1,0-0.1,0
	c0,0-0.1-0.1-0.1-0.2c0,0,0-0.1,0-0.1C145.5,85.5,145.6,85.4,145.7,85.4z M145.5,85.1c0,0-0.1,0.1-0.1,0.1c0,0,0,0,0,0
	c-0.1,0-0.1,0-0.2,0c-0.1,0-0.1,0-0.2,0.1c0,0-0.1,0-0.1,0c-0.1,0-0.1,0-0.1,0c0.1-0.1,0.2-0.2,0.3-0.2c0.1,0,0.2,0,0.3,0
	C145.4,85.1,145.5,85.1,145.5,85.1C145.5,85.1,145.5,85.1,145.5,85.1z M145.1,85.6C145.1,85.6,145.1,85.6,145.1,85.6
	C145.1,85.6,145.1,85.6,145.1,85.6c0.1,0,0.2,0,0.2-0.1c0,0.1,0.1,0.2,0.1,0.3c0,0-0.2,0.1-0.2,0.1c0,0,0,0,0,0c0,0,0,0,0,0
	c0,0,0,0,0,0C145.1,85.7,145.1,85.6,145.1,85.6z M144.8,85.9c0-0.1,0-0.1,0-0.2c0.1,0,0.1-0.1,0.2-0.1c0,0,0,0.1,0,0.1
	c0,0,0,0.1,0,0.1c0,0,0,0,0,0C145,85.9,145,85.9,144.8,85.9C144.9,85.9,144.9,85.9,144.8,85.9z M144.9,85.9L144.9,85.9
	C144.8,86,144.8,85.9,144.9,85.9C144.8,85.9,144.9,85.9,144.9,85.9z M144.6,85.2C144.6,85.2,144.6,85.1,144.6,85.2
	c0-0.2,0-0.4,0.1-0.5c0.1-0.1,0.1-0.2,0.2-0.2l0-0.1l0,0.1c0,0,0,0,0,0c0.1,0,0.3,0.1,0.4,0.3c0.1,0.1,0.1,0.2,0.2,0.2
	c0,0-0.1,0-0.1,0c-0.1,0-0.2,0-0.3,0C144.8,85,144.7,85.1,144.6,85.2z M144.6,85.8c0,0,0.1-0.1,0.1-0.1c0,0,0,0,0,0
	c0,0.1,0,0.1,0.1,0.2l0,0c0,0,0,0,0,0c0,0-0.1,0-0.1,0c0,0,0,0,0,0C144.6,85.9,144.6,85.9,144.6,85.8
	C144.6,85.8,144.6,85.8,144.6,85.8C144.6,85.8,144.6,85.8,144.6,85.8z M144.5,85.9C144.5,85.9,144.5,85.9,144.5,85.9
	c0,0,0,0.1,0,0.1l0,0l0,0c0,0,0,0,0,0c0,0-0.1,0.1-0.1,0.1c0,0,0,0-0.1,0c0,0,0,0,0,0C144.4,86,144.5,85.9,144.5,85.9z M144.4,86.3
	C144.4,86.3,144.3,86.3,144.4,86.3c-0.1,0-0.1,0-0.1-0.1c0,0,0,0,0-0.1c0,0,0-0.1,0-0.1c0,0,0,0,0,0c0,0,0,0,0,0l0,0
	C144.4,86.1,144.4,86.2,144.4,86.3C144.4,86.3,144.4,86.3,144.4,86.3z M144.5,86.3C144.5,86.3,144.5,86.2,144.5,86.3
	c-0.1-0.1-0.1-0.2-0.1-0.2c0,0,0,0,0,0h0c0,0,0.1,0,0.1,0c0,0,0.1,0.1,0.1,0.2C144.6,86.3,144.6,86.3,144.5,86.3z M144.8,86.2
	C144.8,86.2,144.8,86.2,144.8,86.2c-0.1,0-0.1,0-0.1-0.1c0,0,0-0.1-0.1-0.1c0,0,0,0,0,0c0,0,0,0,0,0c0,0,0.1,0,0.1,0c0,0,0,0,0,0
	c0,0,0.1,0.1,0.1,0.2C144.9,86.2,144.8,86.2,144.8,86.2z M145,86.1C145,86.1,144.9,86.1,145,86.1c-0.1-0.1-0.1-0.2-0.1-0.2
	c0,0,0,0,0.1,0c0.1,0,0.1,0,0.1-0.1c0,0,0,0,0,0c0,0,0,0,0,0c0,0,0,0,0,0c0,0,0,0,0,0c0,0,0,0.1,0,0.1C145.1,86.1,145,86.1,145,86.1
	z M145.4,86c-0.1,0-0.1,0-0.2,0.1c0,0,0-0.1,0-0.1c0,0,0,0,0-0.1c0.1,0,0.1,0,0.2-0.1C145.4,85.9,145.4,85.9,145.4,86
	C145.4,86,145.4,86,145.4,86z M145.5,86c0-0.1,0-0.2-0.1-0.2c0,0,0,0,0,0c0,0,0,0,0,0c0,0,0,0,0,0c0,0,0.1,0,0.1,0l0,0
	c0,0,0.1,0,0.1,0c0,0,0,0.1,0,0.1C145.6,85.9,145.6,86,145.5,86z M145.8,85.9c0-0.1,0-0.1,0-0.2c0,0,0,0,0,0c0,0,0,0,0,0
	c0,0,0,0,0,0c0,0,0.1,0,0.2,0c0,0,0,0,0,0c0,0,0,0.1,0,0.1C146,85.9,145.9,85.9,145.8,85.9z M146.1,85.8c0,0,0-0.1,0-0.1
	c0,0,0.1,0,0.1-0.1c0,0,0,0,0,0c0,0,0.1,0,0.2,0c0,0,0,0.1,0,0.1C146.2,85.8,146.2,85.8,146.1,85.8z M146.3,85.6c0,0-0.1,0-0.1,0
	c0,0,0-0.1,0-0.2c0,0,0,0,0-0.1c0.1,0,0.2,0,0.2,0C146.4,85.5,146.4,85.5,146.3,85.6C146.3,85.6,146.3,85.6,146.3,85.6z M146.5,85.7
	c0,0-0.1,0-0.1,0.1c0,0,0-0.1,0-0.1C146.4,85.7,146.4,85.6,146.5,85.7c-0.1-0.1-0.1-0.2-0.1-0.2c0.1,0,0.1,0.1,0.1,0.1
	C146.5,85.6,146.5,85.6,146.5,85.7C146.5,85.6,146.5,85.6,146.5,85.7z M145.9,82.7c-0.1,0-0.1,0-0.2,0c-0.2,0.1-0.5,0.3-0.5,0.7
	c0,0.1,0,0.2,0.1,0.3c0.1,0.3,0.4,0.5,0.7,0.5c0,0,0,0,0,0c0.1,0,0.2,0,0.3,0c0.2,0,0.3-0.1,0.3-0.2c0.1-0.1,0.1-0.2,0.1-0.3
	c0-0.1,0-0.1,0-0.2C146.6,83,146.3,82.7,145.9,82.7z M146.3,83.1c-0.1,0-0.2,0.1-0.2,0.1c0,0,0,0,0,0c0-0.1,0.1-0.1,0.1-0.2
	C146.2,83,146.2,83.1,146.3,83.1z M145.8,83L145.8,83L145.8,83c0,0,0.1,0,0.1,0c0.1,0,0.1,0,0.2,0h0c0,0,0,0,0,0c0,0,0,0.1-0.1,0.2
	c0,0.1-0.1,0.1-0.1,0.2c0,0,0,0-0.1,0c0,0-0.1,0-0.1,0.1c0,0-0.1-0.1-0.1-0.2c0,0-0.1,0-0.1-0.1l0,0C145.6,83.1,145.7,83,145.8,83z
	 M145.5,83.8c0,0-0.1-0.1-0.1-0.2c0-0.1,0-0.1,0-0.2c0-0.1,0-0.2,0.1-0.2c0,0.1,0.1,0.1,0.2,0.1c0,0,0,0,0.1,0.1c0,0,0,0.1,0,0.1
	l0,0c0,0,0,0,0,0.1c0,0,0,0.1-0.1,0.1l0,0c0,0,0,0,0,0C145.6,83.7,145.6,83.7,145.5,83.8z M146.4,83.8c0,0.1-0.1,0.1-0.2,0.1
	c-0.1,0-0.2,0-0.2,0c-0.1,0-0.3,0-0.4-0.2c0,0,0.1-0.1,0.1-0.1c0,0.1,0,0.1,0,0.1l0,0l0,0c0,0,0-0.1,0-0.2c0,0,0,0,0,0
	c0,0,0,0,0-0.1c0,0,0.1,0.1,0.1,0.1c0.1,0,0.2,0,0.2-0.1c0,0,0,0,0,0c0,0,0.1,0.1,0.1,0.2c0,0.1,0,0.1,0,0.1l0,0l0,0
	c0,0,0-0.1,0-0.2c0-0.1,0-0.1-0.1-0.2c0,0-0.1-0.1-0.1-0.1c0-0.1-0.1-0.1-0.1-0.1c0,0,0.1-0.1,0.1-0.2c0,0,0,0,0,0c0,0,0,0,0,0
	c0.1,0,0.2-0.1,0.2-0.1c0.1,0.1,0.1,0.1,0.1,0.2c0,0.1,0,0.1,0,0.2C146.5,83.6,146.4,83.7,146.4,83.8z M157.2,84.4
	c0-0.1,0-0.1,0-0.2C157.1,84.2,157.1,84.2,157.2,84.4z M157,84.3C157,84.3,157,84.3,157,84.3C157,84.3,157,84.3,157,84.3z
	 M157.2,84.4c0.2,0.5,0.8,0.4,0.8,0.4C157.4,84.8,157.2,84.5,157.2,84.4z M157,84.3c0,0.8,0.8,0.6,0.8,0.6
	C157.1,84.9,157,84.4,157,84.3z M157.3,83.4c0.3-0.1,1,0,1,0C158,83.2,157.4,83.2,157.3,83.4z M160.8,84.1
	C160.8,84.1,160.8,84.1,160.8,84.1C160.8,84.1,160.8,84.1,160.8,84.1z M159.8,84.6c0,0,0.7,0.2,0.8-0.5
	C160.6,84.3,160.5,84.6,159.8,84.6z M158.5,85.6L158.5,85.6c0.1,0,0.3,0,0.4,0c0.2,0,0.4,0.1,0.4,0.1l0-0.1c0,0-0.2-0.1-0.5-0.1
	C158.7,85.6,158.6,85.6,158.5,85.6z M160.6,84C160.6,84,160.6,84.1,160.6,84C160.6,84,160.6,84,160.6,84z M160,84.7
	c0,0,0.8,0.3,0.8-0.6C160.8,84.3,160.7,84.7,160,84.7z M161.8,85.9c0-0.1-0.1-0.2-0.1-0.3c0.2-0.5,0.2-1.1,0.2-1.6c0,0,0,0,0,0
	c0-0.9-0.4-1.6-1-2.1c-0.3-0.3-0.8-0.5-1.2-0.6c0-0.2-0.1-0.6-0.5-0.6c-0.5-0.1-0.6,0.3-0.6,0.5c-1.2,0.2-2.4,1.2-2.5,2.9
	c0,0,0,0,0,0c0,0.7,0.2,1.4,0.6,2c0.4,0.6,1.1,1,2.1,1c0,0,0,0,0,0c0,0,0.1,0,0.1,0c1.1,0,1.8-0.3,2.2-0.8c0.1,0.4,0.5,0.7,0.8,0.7
	c0.4,0.1,0.6-0.5,0.6-0.5C162.1,86.8,161.9,86.4,161.8,85.9z M156.8,82.6c0-0.1,0.1-0.1,0.1-0.2c0.2,0.3,0.4,0.2,0.4,0.2
	c-0.1-0.1-0.1-0.4-0.1-0.5c0.2-0.2,0.4-0.3,0.6-0.4c0.2,0.4,0.9,0.7,0.9,0.7c-0.2-0.1-0.4-0.6-0.5-0.9c0.2-0.1,0.4-0.1,0.6-0.1
	c0,0.2,0.2,0.9,0.1,1.1c0,0,0.3-0.7,0.3-1.1c0.2,0,0.4,0.1,0.6,0.2c-0.1,0.2-0.3,0.9-0.6,1c0,0,0.8-0.3,0.9-0.8
	c0.1,0.1,0.3,0.2,0.4,0.3c0,0.1,0,0.4-0.3,0.5c0,0,0.4,0,0.6-0.2c0,0,0.1,0.1,0.1,0.1c0.1,0.6,0.1,1.1,0.1,1.5
	c0-0.1-0.1-0.2-0.2-0.2c-0.2-0.2-0.4-0.5-0.6-0.7c-0.1-0.1-0.2-0.2-0.3-0.3c-0.1-0.1-0.1-0.1-0.1-0.1l-0.1-0.1l-0.1,0.1
	c0,0-0.2,0.3-0.4,0.7c0,0,0,0,0,0l-0.1,0l-0.2-0.3l0.2-0.2l0.1,0v-0.2l-0.4,0l0,0l0,0.1l0.1,0l-0.1,0.1l-0.1-0.1l0,0l0,0v-0.1
	l-0.4,0v0v0.1l0.2,0l0.2,0.2l-0.2,0.2l-0.1,0c-0.1-0.1-0.1-0.2-0.2-0.3c-0.3-0.3-0.6-0.5-0.6-0.5l-0.2-0.1l0,0.2
	c0,0-0.1,0.2-0.2,0.3c-0.1,0.2-0.3,0.5-0.5,0.7c-0.1,0.1-0.1,0.2-0.2,0.4C156.7,83.3,156.7,82.8,156.8,82.6z M161.1,84L161.1,84
	L161.1,84L161.1,84z M158.7,83.3l0.2,0l0-0.1h-0.1l0.1-0.2l0.1,0.2l0,0l0,0l0,0.1l0.2,0c-0.1,0.2-0.2,0.4-0.3,0.7
	C158.9,83.7,158.8,83.5,158.7,83.3z M158.7,84.1C158.7,84.1,158.7,84.1,158.7,84.1c0,0.4-0.1,0.6-0.3,0.8c-0.2,0.2-0.4,0.2-0.7,0.2
	c0,0,0,0,0,0c-0.3,0-0.5-0.1-0.6-0.3c-0.1-0.2-0.2-0.4-0.2-0.6c0,0,0,0,0,0c0-0.1,0-0.2,0.1-0.3c0.1-0.2,0.3-0.5,0.5-0.7
	c0.1-0.2,0.2-0.3,0.3-0.4c0.1,0.1,0.3,0.3,0.5,0.5C158.5,83.4,158.7,83.8,158.7,84.1z M159.5,83.3c0.3-0.1,0.7,0,0.9,0
	c0.1,0.1,0.1,0.1,0.2,0.2c0.1,0.1,0.2,0.2,0.2,0.3c0.1,0.1,0.1,0.2,0.1,0.2c0,0,0,0,0,0.1c0,0.1,0,0.3-0.2,0.5
	c-0.1,0.2-0.3,0.3-0.6,0.4c-0.1,0-0.1,0-0.2,0c-0.5,0-0.8-0.4-0.8-0.7c0,0,0,0,0,0C159.1,84.1,159.3,83.7,159.5,83.3z M159.5,83.3
	C159.5,83.3,159.5,83.3,159.5,83.3c0.1-0.2,0.2-0.3,0.3-0.5c0,0,0,0,0-0.1c0,0,0.1,0.1,0.1,0.1c0.1,0.1,0.2,0.3,0.4,0.4
	C160.1,83.2,159.7,83.2,159.5,83.3z M158.9,85.9c-0.2,0-0.4,0-0.5-0.1c-0.1-0.1-0.1-0.1-0.1-0.2c0-0.1,0-0.1,0.1-0.2
	c0.1-0.1,0.3-0.1,0.5-0.1c0,0,0,0,0,0c0.2,0,0.3,0,0.4,0.1c0.1,0.1,0.1,0.1,0.1,0.2c0,0,0,0,0,0c0,0,0,0.1-0.1,0.1
	C159.3,85.9,159.1,85.9,158.9,85.9C158.9,85.9,158.9,85.9,158.9,85.9z M160.6,86.1l0.5,0.1c-0.2,0.2-0.5,0.4-0.8,0.5
	c-0.4,0-1,0.1-1.3-0.5c0.2,0,0.4,0,0.6-0.1c0.1-0.1,0.3-0.2,0.3-0.4c0,0,0,0,0,0c0-0.2-0.1-0.3-0.3-0.4c-0.1-0.1-0.3-0.1-0.6-0.1
	c0,0,0,0,0,0c-0.2,0-0.4,0-0.6,0.1c-0.2,0.1-0.3,0.2-0.3,0.4c0,0.2,0.1,0.3,0.2,0.4c0.1,0.1,0.3,0.1,0.6,0.1
	c-0.1,0.4-0.6,0.6-1.2,0.5c-0.3-0.1-0.5-0.3-0.7-0.5l0.3-0.2c0,0-0.5-0.1-0.9-1.1c0-0.2-0.1-0.5-0.1-0.7c0,0,0,0,0,0
	c0-0.1,0-0.2,0-0.3c0.1,1.2,0.9,1.6,0.9,1.6c-0.1-0.1-0.1-0.2-0.2-0.3c0.1,0.1,0.2,0.1,0.3,0.2l0.3,0.3l0-0.3c0,0,0,0,0,0
	c0,0,0,0,0,0c0,0,0,0,0,0c0.3,0,0.6-0.1,0.8-0.3c0.1-0.1,0.2-0.3,0.3-0.6c0.1,0.4,0.5,0.8,1.1,0.8c0,0,0,0,0,0l0,0.2l0.2-0.2
	c0,0,0.1,0,0.1,0c0.2,0,0.4-0.1,0.5-0.2c-0.1,0.3-0.3,0.4-0.3,0.4c1.1-0.4,1.1-1.6,1-2.2c0.1,0.3,0.2,0.6,0.2,0.9c0,0,0,0,0,0
	c0,0.3,0,0.7-0.1,1C161.1,86.1,160.6,86.1,160.6,86.1z M159.8,84.5C159.9,84.5,159.9,84.5,159.8,84.5c0.4,0,0.7-0.3,0.7-0.6
	c0,0,0,0,0,0c0-0.3-0.3-0.6-0.7-0.6c0,0,0,0,0,0c-0.3,0-0.6,0.2-0.6,0.6c0,0,0,0,0,0C159.3,84.2,159.5,84.5,159.8,84.5z M159.4,84.1
	c0.1,0,0.3-0.1,0.4-0.1c0,0,0,0,0,0c0,0,0,0.1,0,0.1c-0.1,0-0.2,0-0.3,0C159.5,84.1,159.5,84.1,159.4,84.1L159.4,84.1z M159.9,84.4
	C159.9,84.4,159.9,84.4,159.9,84.4c-0.2,0-0.3-0.1-0.4-0.2c0.1,0,0.3,0,0.4,0c0,0,0,0,0,0c0.1,0,0.2,0,0.3,0c0,0,0.1,0,0.1,0
	C160.3,84.3,160.1,84.4,159.9,84.4z M160,84c0.1,0,0.2,0,0.3,0c0,0,0,0,0,0c0,0-0.1,0-0.1,0c-0.1,0-0.2,0-0.2,0
	C160,84.1,160,84.1,160,84C160,84,160,84,160,84z M159.9,83.5L159.9,83.5L159.9,83.5C159.9,83.5,159.9,83.5,159.9,83.5
	c0.2,0,0.3,0,0.4,0.1c0.1,0.1,0.2,0.2,0.2,0.3c0,0,0,0,0,0c0,0-0.1,0-0.2,0c-0.1,0-0.2,0-0.3,0c-0.2,0-0.4,0-0.6,0.1c0,0,0,0,0,0
	c0,0,0,0,0,0C159.4,83.7,159.7,83.5,159.9,83.5z M158.7,85.1l0.5,0l-0.3-0.4L158.7,85.1z M158.1,83.6c-0.1-0.1-0.3-0.1-0.3-0.1l0,0
	h0c0,0,0,0,0,0c-0.2,0-0.4,0.1-0.5,0.2c-0.1,0.1-0.2,0.3-0.2,0.4c0,0,0,0,0,0c0,0.3,0.3,0.5,0.6,0.5h0c0,0,0,0,0.1,0
	c0.2,0,0.3-0.1,0.4-0.2c0.1-0.1,0.2-0.2,0.2-0.4c0,0,0,0,0-0.1C158.4,83.8,158.3,83.7,158.1,83.6z M158.2,84.4
	c-0.1,0.1-0.2,0.1-0.4,0.1c0,0,0,0-0.1,0c-0.2,0-0.4-0.1-0.5-0.3c0.1,0,0.3,0.1,0.4,0.1c0.1,0,0.1,0,0.1,0c0,0,0.1,0,0.3,0
	c0.1,0,0.1,0,0.2,0c0,0,0,0,0,0C158.3,84.3,158.2,84.3,158.2,84.4z M157.8,84.1C157.7,84.1,157.7,84.1,157.8,84.1
	c-0.2,0-0.3,0-0.4,0c0,0-0.1,0-0.1,0c0,0,0,0,0,0c0,0,0.2,0,0.3,0c0.1,0,0.1,0,0.2,0C157.7,84,157.7,84,157.8,84.1
	C157.7,84.1,157.7,84.1,157.8,84.1z M157.9,84c0.1,0,0.1,0,0.2,0c0.1,0,0.1,0,0.2,0c0,0,0,0,0,0c-0.1,0-0.2,0-0.2,0
	c-0.1,0-0.1,0-0.1,0C157.9,84.1,157.9,84.1,157.9,84C157.9,84.1,157.9,84,157.9,84z M158,83.9c-0.1,0-0.2,0-0.2,0c0,0-0.1,0-0.3,0
	c-0.1,0-0.1,0-0.2,0c0,0,0,0,0,0c0.1-0.2,0.2-0.3,0.5-0.3c0,0,0,0,0,0c0,0,0,0,0.1,0c0.1,0,0.3,0.1,0.4,0.3
	C158.2,83.9,158.1,83.9,158,83.9z M152.7,81c-0.8-0.1-1.6,0.1-2.1,0.6c-0.6,0.5-1,1.3-1.1,2.2c-0.1,0.9,0.2,1.8,0.8,2.5
	c0.5,0.5,1.1,0.8,1.8,0.8c1.7,0,2.8-1,2.9-2.6c0.1-1.1,0-2-0.5-2.6C154.1,81.4,153.5,81.1,152.7,81z M150.4,82
	c0.1-0.1,0.2-0.2,0.3-0.3c0.1,0,0.1-0.1,0.2-0.1c-0.2,0.6,0.1,0.8,0.4,0.8c0,0.1-0.3,0.1-0.3,0.1s0,0,0.1,0.1c-0.2,0-0.4,0-0.6,0
	C150.4,82.4,150.4,82.2,150.4,82z M152.4,83.9c0,0.1,0,0.2,0,0.3c-0.1-0.1-0.1-0.2-0.1-0.2l0,0l0,0c0,0,0,0-0.1,0.1
	c0-0.1,0-0.1,0-0.2C152.3,83.9,152.3,83.9,152.4,83.9z M152.2,83.8c0-0.1,0-0.1,0-0.2c0.1,0,0.1,0,0.2,0c0,0.1,0,0.1,0,0.2
	C152.3,83.8,152.3,83.8,152.2,83.8z M152.3,84.2c0.1,0.1,0.2,0.4,0.3,0.6c0,0,0,0,0,0c-0.1-0.1-0.2-0.1-0.3-0.2l0,0l0,0
	c-0.1,0-0.2,0.1-0.3,0.1C152,84.5,152.1,84.4,152.3,84.2z M152.6,83.8c0-0.1,0-0.3,0.1-0.4c0.1-0.2,0.1-0.3,0.1-0.3
	c0.7-0.2,1.5,0,1.7,0.1c0,0,0.1,0.1,0.1,0.2c0,0.2,0,0.6,0,0.8c0,0,0,0,0,0s0,0,0,0c0,0.1-0.1,0.2-0.1,0.3c-0.1,0.1-0.5,0.2-1,0.1
	c-0.4,0-0.8-0.1-0.8-0.3c0-0.1-0.1-0.2-0.1-0.4C152.6,83.9,152.6,83.9,152.6,83.8L152.6,83.8C152.6,83.8,152.6,83.8,152.6,83.8z
	 M152.9,85.4L152.9,85.4L152.9,85.4c0,0-0.1,0-0.1,0c0-0.1,0-0.2,0-0.3c0.1,0,0.1,0.1,0.1,0.1h0C152.9,85.3,152.9,85.4,152.9,85.4z
	 M152.9,85.5C152.9,85.5,152.9,85.5,152.9,85.5c0,0.1,0,0.2-0.1,0.3C152.9,85.7,152.9,85.5,152.9,85.5z M152.8,85.5
	c0,0.1,0,0.2-0.1,0.3c0,0-0.1,0-0.1,0c0.1-0.1,0.1-0.2,0.1-0.3C152.7,85.5,152.8,85.5,152.8,85.5z M151.2,85.5c0,0,0-0.1,0-0.2
	c0,0,0,0,0,0C151.2,85.4,151.2,85.5,151.2,85.5z M151.2,85.3c0-0.1,0-0.1,0.1-0.1C151.3,85.2,151.3,85.3,151.2,85.3
	C151.2,85.3,151.2,85.3,151.2,85.3z M151.3,85.4C151.3,85.4,151.3,85.4,151.3,85.4C151.3,85.4,151.3,85.4,151.3,85.4L151.3,85.4
	C151.3,85.4,151.3,85.4,151.3,85.4c0.1,0.1,0.1,0.2,0.1,0.2c0,0-0.1,0-0.1,0C151.2,85.5,151.3,85.4,151.3,85.4z M151.4,85.7
	C151.4,85.7,151.4,85.7,151.4,85.7C151.4,85.7,151.3,85.7,151.4,85.7C151.3,85.7,151.4,85.7,151.4,85.7z M151.3,85.3
	c0,0,0-0.1,0-0.2c0,0,0.1,0,0.2-0.1c0,0.2,0,0.2,0,0.3C151.4,85.3,151.4,85.3,151.3,85.3z M151.4,85.4
	C151.5,85.4,151.5,85.4,151.4,85.4c0.1,0,0.1,0,0.1,0l0,0c0,0,0,0,0,0c0,0.1,0,0.2,0,0.3c-0.1,0-0.1,0-0.1,0
	C151.4,85.7,151.4,85.5,151.4,85.4z M151.8,85.8c-0.1,0-0.1,0-0.1,0c-0.1-0.1-0.1-0.2,0-0.3c0.1,0,0.1,0,0.2,0
	C151.8,85.5,151.8,85.6,151.8,85.8z M151.8,85.4c-0.1,0-0.1,0-0.2,0c0-0.1,0-0.2,0-0.3c0.1,0,0.1,0,0.2,0
	C151.8,85.2,151.8,85.3,151.8,85.4z M151.6,85.8c0,0,0.1,0.1,0.2,0c0,0,0,0,0.1,0.1c0.1,0,0.1,0,0.1,0c0,0,0,0,0.1-0.1
	c0,0.1,0.1,0.1,0.1,0.1c0,0,0.1,0,0.1,0l0,0c0.1,0,0.2,0,0.2,0c0,0,0,0,0,0c0,0,0.1,0,0.1,0c-0.1,0.1-0.3,0.1-0.6,0.1
	C151.9,85.9,151.7,85.9,151.6,85.8C151.6,85.8,151.6,85.8,151.6,85.8z M152.4,85.4c-0.1,0-0.2,0-0.3,0l0-0.4h0c0.1,0,0.2,0,0.2,0
	C152.4,85.2,152.4,85.4,152.4,85.4z M152.4,85.5c0.1,0,0.1,0,0.2,0c0,0,0,0.2-0.1,0.3c0,0-0.1,0-0.1,0
	C152.4,85.7,152.4,85.6,152.4,85.5z M152.4,85.5c0,0.2,0,0.3-0.1,0.3c0,0,0,0-0.1,0c0,0-0.1,0-0.1-0.1c0,0,0,0,0-0.1
	c0,0,0-0.1,0-0.1c0,0,0,0,0,0C152.2,85.5,152.3,85.5,152.4,85.5z M152.2,84.7c0,0-0.1,0-0.1,0C152.1,84.7,152.2,84.7,152.2,84.7
	C152.2,84.7,152.2,84.7,152.2,84.7C152.3,84.7,152.2,84.7,152.2,84.7z M152.1,85c0,0.2,0,0.3,0,0.4c-0.1,0-0.2,0-0.2,0
	c0,0,0-0.1,0-0.4C152,85,152,85,152.1,85z M152.1,85.5c0,0,0,0.1,0,0.1c0,0.1,0,0.2-0.1,0.2c0,0-0.1,0-0.1,0c0,0-0.1-0.2,0-0.4
	C151.9,85.4,152,85.4,152.1,85.5C152.1,85.5,152.1,85.5,152.1,85.5z M152.7,85.4c-0.1,0-0.1,0-0.2,0c0-0.1,0-0.2,0-0.4
	c0.1,0,0.1,0,0.2,0.1C152.7,85.2,152.7,85.4,152.7,85.4z M152,84.3c-0.2,0.1-1.4,0.2-1.9,0c-0.1,0-0.1-0.2-0.2-0.4c0,0,0,0,0,0
	c0,0,0,0,0,0c0-0.1,0-0.1,0-0.2c0-0.4,0.1-0.8,0.2-0.8c0.1,0,0.3-0.1,0.4-0.1c0,0,0.1,0,0.1,0c0,0,0,0,0,0c0.5,0,1.1,0,1.4,0.2
	c0,0,0.1,0.1,0.1,0.4C152.1,83.8,152,84.3,152,84.3z M150.2,82.4c0.1,0.1,0.2,0.2,0.2,0.3c-0.1,0-0.2,0-0.3,0.1
	c-0.2,0.1-0.3,0.6-0.3,0.9c0,0,0,0.1,0,0.1c0,0-0.1,0-0.1,0C149.8,83.2,149.9,82.7,150.2,82.4z M151.6,86.7c-0.5,0-0.3-0.4,0-0.4
	c0,0-0.4,0-0.4,0.2c0,0.1,0,0.1,0.1,0.2c-0.3-0.1-0.6-0.3-0.8-0.6c-0.2-0.2-0.4-0.5-0.5-0.9c0-0.4,0.4-0.7,0.4-0.7
	c-0.3,0.1-0.4,0.2-0.5,0.4c-0.1-0.3-0.1-0.7-0.1-1.1c0,0,0.1,0,0.1,0c0,0.2,0.1,0.4,0.2,0.5c0.1,0,0.2,0.1,0.3,0.1
	c-0.1,0.2-0.1,0.3-0.1,0.5c0,0.4,0.2,0.7,0.4,0.7c0.2,0,0.3-0.5,0.1-0.7c0,0.2,0.1,0.6-0.2,0.5c-0.2-0.1-0.2-0.6,0-1
	c0.4,0.1,1,0,1.3,0c-0.1,0.1-0.2,0.2-0.2,0.2c-0.2,0-0.4,0.1-0.5,0.2c-0.1,0.1-0.2,0.2-0.2,0.4c0,0.2,0,0.3,0.1,0.5
	c0.2,0.3,0.6,0.4,0.9,0.4C152,86.4,152,86.7,151.6,86.7z M152.1,86.9c-0.1,0-0.1,0-0.2,0c0,0,0.1-0.1,0.1-0.1
	C152,86.8,152,86.8,152.1,86.9C152.1,86.9,152.1,86.9,152.1,86.9z M154.9,84.4c0,0.4-0.1,0.7-0.3,1c0-0.1-0.1-0.3-0.4-0.4
	c0.1,0.2,0.1,0.7,0.1,0.9c-0.4,0.5-0.9,0.8-1.6,1c0.1-0.1,0.1-0.4-0.1-0.4c0,0,0.1,0.5-0.3,0.4c-0.3-0.1-0.3-0.4-0.2-0.6
	c0.3,0,0.6-0.1,0.7-0.2c0.2-0.1,0.2-0.3,0.3-0.5c0-0.4-0.2-0.6-0.5-0.6c0-0.1-0.1-0.2-0.1-0.3c0.2,0.2,0.6,0.2,0.8,0.2
	c0.1,0,0.2,0,0.3,0c0.1,0.3,0.2,0.7,0,1c-0.2,0.4-0.5,0-0.3-0.1c-0.2,0.2-0.1,0.5,0.2,0.4c0.3,0,0.6-0.5,0.4-1.3
	c0.3,0,0.5-0.1,0.6-0.2c0-0.1,0.1-0.2,0.1-0.3C154.8,84.3,154.8,84.4,154.9,84.4C154.9,84.4,154.9,84.4,154.9,84.4z M154.8,82.9
	c0.1,0.3,0.1,0.7,0.1,1.2c0,0-0.1,0.1-0.2,0.1c0.1-0.3,0.1-0.6,0-0.8c0-0.2-0.1-0.3-0.2-0.3c-0.3-0.2-1.2-0.3-1.8-0.1l0,0
	c-0.1,0-0.1,0.1-0.2,0.2c0,0.1-0.1,0.2-0.1,0.3c-0.1,0-0.2,0-0.2,0c0-0.2,0-0.5-0.2-0.6c-0.1-0.1-0.4-0.1-0.6-0.2c0,0,0.1,0,0.1-0.1
	c0-0.1,0-0.1,0-0.2c0.3-0.1,0.4-0.4,0.2-0.6c-0.2-0.2-0.4,0-0.4,0s0.2-0.1,0.3,0.1c0.1,0.2-0.4,0.4-0.5,0c0-0.3,0.1-0.5,0.2-0.6
	c0.3-0.1,0.6-0.2,1-0.2c0.1,0.3,0.2,1.3-0.1,1.3c-0.4,0-0.2-0.4,0-0.4c0,0-0.3,0-0.4,0.3c-0.1,0.3,0.3,0.5,0.7,0.3
	c0.1,0.2,0.7,0.3,0.7-0.1c0-0.3-0.4-0.4-0.4-0.4s0.3,0.4,0.1,0.4c-0.2,0.1-0.3-0.3-0.2-0.5c0-0.2,0.2-0.6,0.3-0.8
	c0.4,0.1,0.7,0.2,0.9,0.3c0.1,0.2,0.1,0.6-0.2,0.8c-0.2,0.1-0.4-0.2-0.3-0.4c-0.2,0.3-0.2,0.8,0.4,0.6c0,0.2,0.4,0.3,0.5,0.1
	c-0.5,0.1-0.5-0.3-0.1-0.9c0.1,0.1,0.1,0.1,0.1,0.2c0.1,0.2,0.2,0.3,0.3,0.6c0,0.2-0.1,0.4-0.3,0.4C154.4,83,154.7,83,154.8,82.9z
	 M150.6,85.7L150.6,85.7c-0.1,0.1-0.2,0.3-0.1,0.4c0,0,0,0,0.1,0.1c0.1,0,0.1,0,0.1-0.1C150.7,86,150.7,85.9,150.6,85.7L150.6,85.7z
	 M150.6,86.1C150.6,86.1,150.6,86.1,150.6,86.1c-0.1,0-0.1,0-0.1,0c0,0,0,0,0,0c0-0.1,0-0.1,0.1-0.2C150.6,85.9,150.7,86,150.6,86.1
	C150.7,86,150.6,86.1,150.6,86.1z M151.8,83.1c0,0,0,0,0,0.1c-0.6-0.2-1.2-0.1-1.4-0.1c0-0.1,0-0.1,0-0.1l-0.1,0c0,0-0.3,0.6,0,1.2
	l0.1,0c0,0,0-0.1,0-0.1c0.3,0.2,1.1,0.2,1.3,0.1c0,0,0,0,0,0c0,0,0,0.1,0,0.1l0.1,0C152,83.7,151.8,83.1,151.8,83.1L151.8,83.1z
	 M151.1,83.3c-0.2,0-0.2,0.1-0.2,0.2c0.1-0.1,0.3-0.1,0.3,0.1c0,0.2-0.2,0.2-0.3,0.1c0,0.1,0.2,0.3,0.4,0.1c0,0-0.2,0.2-0.4,0.1
	c-0.2,0-0.4-0.1-0.4-0.4c0.1-0.6,0.9-0.4,0.8-0.2C151.3,83.4,151.2,83.3,151.1,83.3z M152.8,84.3c0,0,0-0.1,0-0.1
	c0.2,0.1,1.3,0.2,1.4,0.1c0,0,0,0.1,0,0.1l0.1,0c0.3-0.7,0.1-1.2,0.1-1.2l-0.1,0c0,0,0,0,0,0.1c-0.9-0.1-1.3-0.1-1.4-0.1
	c0-0.1,0-0.1,0-0.1l-0.1,0C152.9,83.2,152.7,83.6,152.8,84.3L152.8,84.3z M153,83.8c0.1-0.6,0.8-0.3,0.7-0.2c0,0,0-0.1-0.2-0.1
	c-0.2,0-0.2,0.1-0.2,0.2c0.1-0.1,0.3-0.1,0.3,0.1c0,0.2-0.2,0.2-0.3,0.1c0,0.1,0.2,0.2,0.4,0.1c0,0-0.2,0.2-0.4,0.1
	C153.2,84.1,153,84,153,83.8z M149.6,81.7c0.1-0.3-0.2-0.3-0.1-0.6c0.5-0.3-0.1-0.6,0.3-0.5c0.3,0,0.5-0.6,0.2-1
	c-0.3-0.3-1.1-0.2-1-0.2c-0.5-0.2-0.9,0.2-1,0.6c-0.1,0.4,0.4,0.6,0.5,0.7c0.1,0.1,0,0.3,0.1,0.5c0.1,0.2,0.2,0.1,0.4,0.2
	c0.2,0.1,0.6,0.6,0.6,0.6C149.7,82.1,149.7,82,149.6,81.7z M149.5,81.8c0,0-0.2-0.4-0.5-0.4c-0.3,0-0.4-0.3-0.4-0.5
	c0-0.2-0.4-0.3-0.5-0.6c0-0.2,0.2-0.9,0.8-0.7c0.4-0.1,1,0.2,1,0.5c0,0.3-0.5,0.6-0.7,0.5c-0.3-0.1-0.2-0.6,0.1-0.6
	c0.3,0,0.2,0.2,0.1,0.2c0.2,0,0.2-0.2,0.1-0.3c-0.2-0.1-0.5,0-0.5,0.3c0,0.3,0.1,0.6,0.6,0.5c0,0.1-0.1,0.4-0.2,0.5
	C149.4,81.2,149.6,81.6,149.5,81.8z M153.5,85.2c0.1-0.1,0-0.2-0.1-0.4l0,0l0,0c0,0-0.2,0.3-0.1,0.4c0,0,0,0.1,0.1,0.1
	C153.4,85.3,153.5,85.3,153.5,85.2z M153.3,85.2C153.3,85.2,153.3,85.2,153.3,85.2c0-0.1,0-0.2,0.1-0.3c0,0.1,0.1,0.2,0.1,0.2
	c0,0,0,0.1,0,0.1C153.4,85.2,153.4,85.2,153.3,85.2C153.3,85.2,153.3,85.2,153.3,85.2z M151.9,81.6c0,0,0,0.1,0,0.1c0,0,0,0.1,0,0.1
	c0,0,0,0,0.1,0c0,0,0.1,0,0.1,0c0,0,0-0.1,0-0.2l0,0c0-0.1,0-0.3,0-0.3l-0.1,0c0,0-0.1,0.2,0,0.3l0,0c0,0,0,0.1,0,0.1c0,0,0,0,0,0
	c0,0,0,0,0,0C151.9,81.7,151.9,81.6,151.9,81.6L151.9,81.6c0.1-0.1,0.1-0.1,0-0.1c0,0,0,0-0.1,0l0,0l0,0
	C151.9,81.5,151.9,81.5,151.9,81.6L151.9,81.6c-0.1,0-0.1-0.1-0.1-0.1l0-0.1l-0.1,0l0,0.1C151.7,81.5,151.8,81.6,151.9,81.6
	C151.8,81.6,151.9,81.6,151.9,81.6z M174.6,84.3c0,0-0.1,0.2-0.2,0.2c-0.1,0-0.4,0.1-0.4,0c0,0-0.1,0,0.1,0c0.1,0,0.4,0,0.4-0.1
	C174.5,84.4,174.7,84.3,174.6,84.3z M174.3,84.3c0.1,0,0.1-0.1,0.1-0.2c0,0,0,0,0-0.1c0,0,0,0.1-0.1,0.1c-0.1,0-0.1-0.2,0-0.2
	c0,0-0.1,0-0.1,0c-0.1,0-0.1,0.1-0.1,0.2C174.1,84.1,174.2,84.3,174.3,84.3z M174.2,84.1c0.1,0,0.1,0.1,0,0.1
	C174.2,84.2,174.2,84.1,174.2,84.1z M173.9,84c0,0,0.1,0,0.2-0.1c0,0-0.1,0.1-0.1,0.2c0,0.2,0.1,0.3,0.3,0.3c0.2,0,0.4-0.4,0.1-0.6
	c0.1,0,0.1,0,0.1,0c0.2,0.2,0.2,0.2,0.2,0.2s-0.2-0.4-0.2-0.4C174.5,83.6,173.8,83.8,173.9,84C173.8,83.9,173.8,84,173.9,84z
	 M174.3,83.9c0,0,0.1,0,0.1,0c0,0,0.1,0.1,0.1,0.2c0,0.2-0.1,0.2-0.2,0.2c-0.1,0-0.2-0.1-0.2-0.2C174.1,84,174.2,83.9,174.3,83.9z
	 M172.9,83.1l0.3,0l-0.1-0.5c0,0,0.4,0.2,0.4-0.2c0-0.3-0.4-0.3-0.7-0.3C173,82.1,173.1,82.5,172.9,83.1z M173.5,82.4
	c0,0-0.3,0-0.3,0l0-0.1C173.2,82.2,173.5,82.2,173.5,82.4z M175.1,86.1C175.1,86.1,175.1,86.2,175.1,86.1c0.1-1.1,0.4-2.2,0.4-3.2
	c0-0.2,0-0.4,0-0.5c-0.1-0.6-0.2-1.2-0.5-1.6c-0.3-0.4-0.9-0.7-1.7-0.8l0,0c0,0,0,0,0,0c-0.5,0-1.1,0.3-1.5,0.9
	c-0.4,0.6-0.7,1.4-0.7,2.3l-0.3,0.3l-0.1-1.1l-0.1,1.1l-0.5-0.3l0.4,0.5l-0.8,0.2l0.9,0l-0.5,0.6l0.6-0.4l0.1,1
	c-0.1,0-0.2,0-0.3,0.1c0,0-0.1,0-0.1,0c-0.1,0-0.3,0-0.4,0.2l-0.1,0.1l0.1,0c0,0,0,0,0.1,0c-0.1,0-0.2,0.2-0.2,0.5
	c0,0.1,0,0.2,0.1,0.3c0,0,0,0,0,0c0,0,0,0,0,0c0,0.1,0,0.1,0.1,0.1c0.1,0.1,0.3,0.3,0.6,0.4l0,0v0l0,0.1c0.2,0.1,0.3,0.1,0.5,0.1
	c0,0,0,0,0,0c0.1,0,0.2,0,0.3-0.1l0,0c0.4-0.1,0.5-0.3,0.5-0.5c0-0.1,0-0.1,0-0.2c0,0,0,0,0.1,0c0,0,0.1,0,0.3,0
	c0.2,0.4,0.4,0.7,0.5,0.9c0.1,0.4,0.5,0.7,1.1,0.7c0.1,0,0.2,0,0.3-0.1c0,0,0.1,0,0.1,0c0.2,0,0.5-0.1,0.7-0.4
	c0.2-0.2,0.5-0.6,0.6-1.1c0.1,0,0.1,0,0.1,0c0.1,0,0.8,0,0.8,0s0.1,0,0.1-0.1C176,86,175.4,86.1,175.1,86.1z M175.2,84.3
	c0,0-0.1,0-0.2,0c0.1-0.2,0.1-0.3,0.1-0.5c0.1,0,0.1,0,0.2,0C175.3,83.9,175.3,84.1,175.2,84.3z M175.4,82.9c0,0.1,0,0.2,0,0.4
	c-0.1,0-0.1,0-0.2,0c0-0.2-0.1-0.4-0.1-0.5c0.2,0,0.3-0.1,0.3-0.1C175.4,82.8,175.4,82.9,175.4,82.9z M171.8,81.1
	c0.2,0,0.7,0.1,0.9,0.1c0.3,0,0.8,0.1,0.8,0.1c0-0.1,0.3-0.4,0.3-0.4c-0.1,0.1-0.3,0.1-0.3,0.1c0,0-0.2,0-0.2,0c0,0-0.4-0.1-0.4-0.1
	s-0.3,0-0.5,0c-0.1,0-0.2,0-0.2,0c0.3-0.3,0.7-0.5,1.1-0.5c0,0,0,0,0,0c0,0,0,0,0,0l0-0.1l0,0.1c0.8,0,1.3,0.3,1.6,0.7
	c0.1,0.1,0.1,0.2,0.2,0.3c-0.1,0.1-0.6,0.3-1.1,0.3c-0.6,0-1.1,0.1-1.4,0.1c-0.2,0-0.7-0.1-0.8-0.1
	C171.7,81.3,171.8,81.2,171.8,81.1z M171.5,81.8c0.1,0,0.6,0.2,0.7,0.2c0.2,0,0.7,0,0.9,0c0.2,0,0.8,0.1,1,0
	c0.2-0.1,0.8-0.1,0.9-0.2c0.1-0.1,0.2-0.1,0.2-0.1c0.1,0.2,0.1,0.4,0.1,0.7c-0.1,0-0.2,0.1-0.4,0.1l0-0.1l-0.1,0.1
	c-0.2,0-0.4,0.1-0.6,0.1c-0.2,0-0.3,0-0.5,0c0,0.1-0.1,0.1-0.1,0.1c-0.1,0.1-0.2,0.1-0.3,0c0,0.1,0,0.1,0,0.2c0.2,0,0.3,0,0.5,0.1
	c0.2,0,0.5,0,0.8,0c-0.1,0.2-0.3,0.3-0.4,0.4c-0.1,0.1-0.2,0.1-0.2,0.2c-0.4,0-0.8,0-1.2,0c-0.1-0.1-0.2-0.1-0.3-0.2
	c-0.2-0.1-0.4-0.3-0.5-0.4c0,0-0.1-0.1-0.1-0.1c0,0,0.1,0,0.1,0c0.2,0,0.2,0,0.5,0c0.1,0,0.3,0,0.5,0c0-0.1,0-0.2,0-0.4
	c-0.1,0-0.1,0-0.2,0c-0.3,0-0.6-0.1-0.8-0.1c-0.2,0-0.5,0-0.6-0.1C171.4,82.1,171.4,81.9,171.5,81.8z M173.6,84.2
	c0-0.2,0.1-0.3,0.2-0.4c0.1-0.1,0.2-0.1,0.2-0.2c0,0,0.1,0,0.1,0l0.6-0.1c0,0,0.1,0.1,0.2,0.1c0,0,0,0.1,0,0.1c0,0,0,0.1,0,0.1
	c0,0.2-0.1,0.5-0.2,0.7c-0.1,0.2-0.3,0.3-0.5,0.3c0,0,0,0,0,0c-0.2,0-0.4-0.1-0.5-0.2C173.7,84.5,173.7,84.3,173.6,84.2L173.6,84.2
	L173.6,84.2C173.6,84.2,173.6,84.2,173.6,84.2z M174.3,83.4c0.2-0.2,0.4-0.5,0.5-0.7c0,0.1,0,0.1,0,0.2c0,0.2,0.1,0.3,0.1,0.5
	c-0.1-0.1-0.2-0.2-0.3-0.2C174.7,83.3,174.5,83.3,174.3,83.4z M171.6,83.7c0.1-0.1,0.4-0.2,0.4-0.2l0.6,0.1c0,0,0,0,0.1,0
	c0.3,0.2,0.4,0.4,0.4,0.6c0,0.2-0.1,0.3-0.3,0.5c-0.1,0.1-0.2,0.1-0.3,0.1c-0.1,0-0.3-0.1-0.4-0.2C171.8,84.4,171.6,84.1,171.6,83.7
	l0.2,0L171.6,83.7z M172,83.3c-0.1,0-0.4,0.3-0.4,0.4l0,0c0-0.1,0-0.1,0-0.2c0-0.2,0-0.4,0.1-0.7c0.1,0.1,0.3,0.4,0.5,0.5
	C172.1,83.3,172,83.3,172,83.3z M171.5,84.3c0,0-0.1,0-0.1,0l-0.1-0.1c0-0.1,0-0.2-0.1-0.4c0,0,0,0,0,0l0.1,0c0,0,0,0,0.1,0
	C171.4,84,171.5,84.2,171.5,84.3z M171.8,84.7C171.8,84.7,171.9,84.7,171.8,84.7c0.2,0.2,0.4,0.2,0.6,0.2c0.1,0,0.3,0,0.4-0.1
	c0.2,0,0.3,0,0.4,0c0,0.1-0.1,0.2-0.1,0.3c0,0-0.1,0-0.1,0c-0.2,0-0.7-0.1-0.9-0.1c-0.2,0-0.5,0-0.6-0.1c0-0.1-0.1-0.2-0.1-0.4
	C171.5,84.7,171.7,84.7,171.8,84.7z M173.1,84.5c0-0.1,0.1-0.2,0.1-0.3c0-0.1,0-0.2-0.1-0.3c0.1,0,0.3,0,0.4,0
	c0,0.1-0.1,0.2-0.1,0.3c0,0,0,0,0,0.1l0,0c0,0.1,0,0.2,0.1,0.3c-0.1,0-0.2,0-0.2,0c0-0.1,0-0.2,0-0.2c0,0.1,0,0.1,0,0.2
	C173.2,84.5,173.2,84.5,173.1,84.5z M171.2,83.2l0.2-0.2L171.2,83.2c0-0.2,0-0.3,0-0.4c0.1,0,0.2,0,0.3,0c-0.1,0.2-0.1,0.4-0.2,0.6
	c-0.1,0-0.1,0-0.2,0C171.2,83.3,171.2,83.3,171.2,83.2C171.2,83.2,171.2,83.2,171.2,83.2z M171.1,83.9c0,0.1,0,0.1,0,0.2l-0.2-0.2
	L171.1,83.9C171.1,83.8,171.1,83.8,171.1,83.9z M171,83.4c0,0.1,0,0.2,0,0.3l-0.2,0L171,83.4z M170.6,85.1c0.2,0,0.3,0.1,0.4,0.2
	c0,0,0,0-0.1,0c0,0-0.1,0-0.1,0L170.6,85.1l0.1,0.2c0,0,0,0,0,0c0,0,0,0,0,0.1c0,0-0.1-0.1-0.1-0.1l0.1-0.1c0,0-0.1-0.1-0.2-0.1
	C170.5,85.2,170.6,85.1,170.6,85.1z M170.7,85.7c-0.1-0.1-0.2-0.1-0.2-0.1c-0.1,0-0.2,0-0.3,0.1c0,0-0.1,0-0.1,0.1
	c0-0.1,0-0.1-0.1-0.2c0,0,0-0.1,0-0.1c0,0,0.1,0,0.1,0c0,0,0,0,0,0h0l0.1,0.1c0,0,0.1,0,0.1-0.1c0.1,0,0.2-0.1,0.3-0.1
	c0.1,0,0.2,0,0.2,0.1c0,0.1,0.1,0.1,0.1,0.2c0,0.1,0,0.1-0.1,0.2c0,0,0,0,0,0h0c0,0,0,0,0-0.1C170.7,85.8,170.7,85.7,170.7,85.7z
	 M170.1,86C170.1,86,170.1,85.9,170.1,86c0,0,0.1,0,0.1,0c0.1,0,0.1,0,0.1,0.1l0.1-0.1c-0.1-0.1-0.2-0.1-0.3-0.1c0,0-0.1,0-0.1,0
	c0,0,0,0,0.1-0.1c0.1,0,0.1-0.1,0.2-0.1c0.1,0,0.1,0,0.2,0.1c0,0,0,0.1,0,0.1c0,0.1,0,0.2-0.1,0.2c-0.1,0.1-0.2,0.1-0.2,0.1
	c0,0,0,0,0,0c-0.1,0-0.1,0-0.1-0.1C170.1,86.1,170.1,86,170.1,86z M170.1,86.3C170.1,86.3,170.1,86.3,170.1,86.3L170.1,86.3
	C170.1,86.3,170.1,86.3,170.1,86.3z M170.6,86.2c0,0,0.1-0.1,0.1-0.1c0,0,0,0,0,0C170.7,86.1,170.7,86.2,170.6,86.2
	C170.7,86.3,170.7,86.3,170.6,86.2C170.6,86.3,170.6,86.3,170.6,86.2C170.6,86.2,170.6,86.2,170.6,86.2z M170,86.2
	C170,86.2,170,86.2,170,86.2c0,0-0.1-0.1-0.1-0.3c0-0.1,0-0.1,0-0.2c0,0.1,0,0.1,0,0.1c0,0,0,0,0,0c0,0,0,0.1,0,0.1
	C170,86,170,86.1,170,86.2z M170.8,86.1C170.8,86.1,170.9,86.1,170.8,86.1c0.1,0,0.1,0,0.2,0.1c0,0-0.1,0.1-0.1,0.1c0,0,0,0-0.1,0.1
	l0,0C170.8,86.2,170.8,86.2,170.8,86.1C170.8,86.1,170.8,86.1,170.8,86.1z M170.2,85.2c0.1,0,0.2,0,0.3,0.1c0,0,0.1,0,0.1,0
	c0,0,0,0,0,0c-0.1,0-0.3,0.1-0.4,0.1c0,0,0,0-0.1,0c-0.1,0-0.1-0.1-0.2-0.1C170,85.2,170.1,85.2,170.2,85.2z M169.7,85.9
	c0-0.1,0.1-0.2,0.1-0.3c0,0,0-0.1,0.1-0.1c0,0,0,0.1,0,0.1c0,0,0,0,0,0.1l-0.1,0C169.8,85.7,169.8,85.8,169.7,85.9
	c0.1,0.3,0.2,0.4,0.3,0.4c0,0,0,0,0,0c-0.1,0-0.1,0-0.2-0.1l0,0C169.7,86.1,169.7,86,169.7,85.9z M169.9,86.5
	C169.9,86.5,169.8,86.4,169.9,86.5C169.9,86.4,169.9,86.4,169.9,86.5c0.3,0,0.4-0.1,0.4-0.1l0,0c0,0,0,0,0,0c0,0,0.1,0,0.1,0l0,0
	c0,0,0.1,0,0.3,0.1c0,0,0,0.1,0,0.1l-0.1,0.2c-0.1,0-0.1,0-0.2,0C170.1,86.7,170,86.6,169.9,86.5z M171,86.7
	C171,86.7,171,86.7,171,86.7c0,0.1-0.1,0.1-0.3,0.1c-0.1,0-0.1,0-0.3,0c0,0,0,0,0,0h0c0,0,0,0,0,0c0.2,0,0.4-0.1,0.5-0.2
	C171,86.6,171,86.7,171,86.7z M170.9,86.5c-0.1,0.1-0.1,0.1-0.3,0.1l0.1-0.1c0.1,0,0.2-0.1,0.3-0.2c0,0,0,0,0.1-0.1
	C171,86.3,171,86.4,170.9,86.5z M171.3,86.2L171.3,86.2C171.3,86.2,171.3,86.2,171.3,86.2c0,0.1,0,0.2,0,0.2c0,0.1,0,0.3-0.3,0.4
	c0-0.1,0-0.1,0-0.2c0,0,0-0.1,0-0.1l0,0c0.1-0.1,0.1-0.3,0.1-0.3l-0.1,0c0,0,0,0,0,0l0,0l0,0c0-0.1-0.1-0.1-0.2-0.1c0,0,0,0,0,0
	c0-0.1,0.1-0.1,0.1-0.2c0-0.1,0-0.1-0.1-0.2h0c0,0,0-0.1,0-0.1c0.2,0.1,0.3,0.2,0.3,0.4c0,0.1,0,0.1,0,0.2c0,0,0,0,0,0.1
	c0,0,0,0,0,0l0.1,0.1l0,0c0,0,0.1-0.1,0.1-0.3c0,0,0-0.1,0-0.2c0,0,0.1-0.1,0.1-0.1c0,0,0,0,0,0c0,0.1,0.1,0.2,0.1,0.3
	c0,0.1,0,0.2,0,0.3C171.3,86.1,171.3,86.2,171.3,86.2L171.3,86.2z M171.5,86.1C171.5,86.1,171.5,86.1,171.5,86.1c0-0.1,0-0.2,0-0.4
	c0-0.2-0.1-0.4-0.3-0.6l-0.2-0.1l0.1,0.2c0,0,0,0,0,0.1c0,0,0,0,0,0c-0.1-0.1-0.3-0.3-0.5-0.3c0,0,0,0,0,0l0.1-1l0.4,0.2
	c0.2,0.9,0.4,1.5,0.6,1.9C171.6,86.1,171.5,86.1,171.5,86.1z M174.3,87.3c-0.2,0.2-0.5,0.3-0.6,0.3c0,0,0,0,0,0c0,0,0,0,0,0l0,0l0,0
	l-0.1,0c-0.1,0-0.2,0.1-0.3,0.1c-0.3,0-0.7-0.2-0.8-0.5c0.1,0,0.3,0,0.4,0c0.2,0,0.7,0.1,1,0.1C174,87.3,174.3,87.2,174.3,87.3
	C174.4,87.2,174.4,87.3,174.3,87.3z M174.7,86.8c-0.1,0-0.5,0.1-0.7,0.1c-0.2,0-0.3,0-0.8,0c-0.4,0-0.7,0-0.9,0
	c-0.1-0.1-0.2-0.3-0.3-0.6c0.1,0,0.4,0,0.6,0c0,0,0,0,0,0.1c0,0,0,0,0,0c0,0.2,0.1,0.3,0.3,0.3c0.1,0,0.3,0,0.4,0c0,0,0.1,0,0.1,0
	c0.1,0,0.3,0,0.5-0.1c0.1-0.1,0.3-0.2,0.3-0.3c0.3,0,0.5-0.1,0.6-0.1C174.8,86.5,174.7,86.7,174.7,86.8z M173.3,86.1
	c-0.1,0-0.2,0-0.3,0c0.1-0.1,0.2-0.1,0.4-0.1c0.3,0,0.5,0,0.6,0.1C173.8,86.1,173.5,86.1,173.3,86.1z M173.5,86.4
	c-0.1,0-0.2,0-0.3,0C173.3,86.4,173.4,86.4,173.5,86.4z M173.1,86.4c0.1,0,0.2,0.1,0.3,0.1c0.1,0,0.2-0.1,0.3-0.1c0,0,0.1,0,0.1,0
	c0.1,0,0.1,0,0.2,0c0,0.1-0.1,0.1-0.2,0.2c-0.1,0-0.3,0.1-0.4,0.1c0,0-0.1,0-0.1,0c-0.1,0-0.3,0-0.4,0c-0.1,0-0.2-0.1-0.2-0.2
	c0,0,0,0,0,0c0,0,0,0,0-0.1C172.9,86.4,173,86.4,173.1,86.4z M174.9,86c0,0-0.2,0-0.3,0c-0.1,0-0.2,0-0.4,0c0,0-0.1-0.1-0.1-0.1
	c-0.1-0.1-0.3-0.1-0.7-0.1c-0.2,0-0.4,0-0.5,0.1c0,0-0.1,0.1-0.1,0.1c-0.5,0-0.9-0.1-0.9-0.1s0,0,0,0c-0.1-0.2-0.2-0.4-0.3-0.7
	l0.1,0.1c0,0,0.6,0.1,0.7,0.1c0,0,0.4,0,0.7,0c0,0.1,0,0.1-0.1,0.2c0.6,0.1,0.8,0,0.8,0s0,0-0.5-0.1c0,0,0,0,0-0.1
	c0.3,0,0.8,0.1,1.1,0c0.2-0.1,0.5-0.1,0.7-0.1C175,85.6,174.9,85.8,174.9,86z M174,85.2c-0.2,0-0.4,0-0.7-0.1c0-0.1,0-0.2,0-0.3
	c0.1,0,0.3,0,0.5,0c0.1,0.1,0.2,0.1,0.4,0.1c0,0,0,0,0,0c0,0,0,0,0,0c0.2,0,0.4-0.1,0.5-0.2c0.2,0,0.3-0.1,0.4-0.1
	c0,0.2-0.1,0.3-0.1,0.5C174.8,85.2,174.2,85.2,174,85.2z M172,83.8c0,0,0.1,0,0.1,0c-0.2,0.2,0,0.6,0.2,0.6c0.2,0,0.3,0,0.3-0.3
	c0-0.1,0-0.2-0.1-0.2c0.1,0,0.2,0,0.2,0c0,0,0,0,0,0C172.8,83.9,172.1,83.7,172,83.8c0-0.1-0.2,0.1-0.2,0.1S171.9,84,172,83.8z
	 M172.3,83.9c0,0,0.1,0,0.1,0l0,0c0.1,0,0.1,0.1,0.1,0.2c0,0.1,0,0.2-0.1,0.2c-0.1,0-0.2-0.1-0.2-0.2
	C172.2,84,172.2,83.9,172.3,83.9z M172.4,84.3c0.1,0,0.1-0.2,0.1-0.2c0,0,0-0.2-0.1-0.2c0,0-0.1,0-0.1,0c0.1,0,0.1,0.2,0,0.2
	c0,0-0.1,0-0.1-0.1c0,0,0,0,0,0.1C172.2,84.2,172.3,84.3,172.4,84.3z M172.4,84.1c0.1,0,0,0.1,0,0.1
	C172.4,84.2,172.3,84.1,172.4,84.1z M172.6,84.5c0,0-0.4,0-0.4,0c-0.1,0-0.2-0.2-0.2-0.2c-0.1,0,0.1,0.2,0.1,0.2
	C172.2,84.5,172.5,84.5,172.6,84.5C172.7,84.5,172.7,84.5,172.6,84.5z M157.8,77.8h0.7c0.1,0,0.1,0,0.1-0.1v-1.9h1.6v1.9
	c0,0.1,0,0.1,0.1,0.1h0.7c0,0,0.1,0,0.1-0.1v-4.3c0-0.1,0-0.1-0.1-0.1h-0.7c0,0-0.1,0-0.1,0.1v1.7h-1.6v-1.7c0-0.1,0-0.1-0.1-0.1
	h-0.7c-0.1,0-0.1,0-0.1,0.1L157.8,77.8C157.7,77.8,157.7,77.8,157.8,77.8z M164.7,77.7C164.7,77.8,164.8,77.8,164.7,77.7l0.7,0.1
	c0.1,0,0.1,0,0.1-0.1v-1.7c0-0.2,0.1-0.5,0.2-0.6c0.1-0.1,0.3-0.2,0.5-0.2c0.1,0,0.1,0,0.2,0c0,0,0,0,0,0c0,0,0,0,0.1,0
	c0,0,0,0,0-0.1v-0.6c0,0,0-0.1-0.1-0.1c-0.1,0-0.1,0-0.2,0c-0.2,0-0.4,0.1-0.5,0.2c-0.1,0.1-0.2,0.1-0.2,0.2l0-0.3
	c0-0.1,0-0.1-0.1-0.1h-0.6c0,0,0,0-0.1,0c0,0,0,0,0,0.1c0,0.3,0,0.6,0,0.9V77.7z M152.2,77.9c0.4,0,0.8-0.1,1.1-0.4
	c0.3-0.3,0.5-0.8,0.5-1.3c0-1-0.6-1.7-1.5-1.7c-0.4,0-0.8,0.2-1.1,0.5c-0.3,0.3-0.5,0.8-0.5,1.3c0,0.5,0.2,0.9,0.4,1.2
	C151.4,77.7,151.8,77.9,152.2,77.9z M151.7,75.5c0.1-0.2,0.3-0.3,0.5-0.3c0.2,0,0.4,0.1,0.5,0.3c0.1,0.2,0.2,0.4,0.2,0.7
	c0,0.3-0.1,0.6-0.2,0.8c-0.1,0.1-0.2,0.3-0.5,0.3c-0.2,0-0.4-0.2-0.5-0.3c-0.1-0.2-0.2-0.5-0.2-0.7
	C151.6,75.9,151.6,75.6,151.7,75.5z M173.1,77.7c0.2,0.1,0.6,0.2,0.9,0.2c0.4,0,0.7-0.1,0.9-0.3c0.2-0.2,0.4-0.5,0.4-0.8
	c0-0.5-0.3-0.8-0.8-1c-0.4-0.2-0.5-0.3-0.5-0.4c0-0.2,0.1-0.3,0.4-0.3c0.3,0,0.5,0.1,0.5,0.2c0,0,0,0,0,0c0,0,0,0,0,0
	c0,0,0,0,0.1-0.1l0.1-0.5c0,0,0-0.1,0-0.1c-0.2-0.1-0.5-0.2-0.8-0.2c-0.3,0-0.6,0.1-0.8,0.3c-0.2,0.2-0.3,0.4-0.3,0.7
	c0,0.2,0.1,0.4,0.2,0.6c0.1,0.2,0.4,0.3,0.6,0.4c0.4,0.2,0.4,0.3,0.4,0.4c0,0.3-0.3,0.3-0.4,0.3c-0.2,0-0.5-0.1-0.7-0.2c0,0,0,0,0,0
	c0,0,0,0,0,0c0,0,0,0-0.1,0.1l-0.1,0.5C173,77.6,173,77.7,173.1,77.7z M136.2,77.7C136.2,77.8,136.2,77.8,136.2,77.7l0.7,0.1
	c0.1,0,0.1,0,0.1-0.1v-3.7h1.1c0.1,0,0.1,0,0.1-0.1v-0.6c0-0.1,0-0.1-0.1-0.1h-3c-0.1,0-0.1,0-0.1,0.1V74c0,0.1,0,0.1,0.1,0.1h1.1
	V77.7z M156.2,77.7C156.2,77.8,156.2,77.8,156.2,77.7l0.7,0.1c0,0,0.1,0,0.1-0.1v-1.9c0-1-0.6-1.4-1.1-1.4c-0.4,0-0.7,0.2-0.9,0.4
	l0-0.2c0,0,0-0.1-0.1-0.1h-0.6c0,0-0.1,0-0.1,0c0,0,0,0,0,0.1c0,0.3,0,0.5,0,0.9v2.2c0,0.1,0,0.1,0.1,0.1h0.7c0.1,0,0.1,0,0.1-0.1
	v-1.9c0-0.4,0.3-0.7,0.6-0.7c0.3,0,0.5,0.2,0.5,0.7V77.7z M171.5,77.9c0.4,0,0.8-0.1,1-0.2c0,0,0.1-0.1,0.1-0.1l-0.1-0.5
	c0,0,0,0,0-0.1c0,0,0,0,0,0c0,0,0,0,0,0c-0.2,0.1-0.5,0.1-0.8,0.1c-0.3,0-0.8-0.1-0.8-0.8h1.9c0,0,0.1,0,0.1-0.1c0-0.1,0-0.2,0-0.3
	c0-0.4-0.1-0.8-0.3-1.1c-0.2-0.3-0.6-0.5-1-0.5c-0.5,0-0.8,0.2-1.1,0.5c-0.3,0.3-0.4,0.8-0.4,1.2c0,0.5,0.1,0.9,0.4,1.2
	C170.6,77.7,171,77.9,171.5,77.9z M171.4,75.1c0.2,0,0.3,0,0.4,0.1c0.1,0.1,0.2,0.4,0.2,0.5h-1.2C170.8,75.6,171,75.1,171.4,75.1z
	 M168.1,77.9c0.4,0,0.8-0.1,1.1-0.4c0.3-0.3,0.5-0.8,0.5-1.3c0-1-0.6-1.7-1.5-1.7c-0.4,0-0.8,0.2-1.1,0.5c-0.3,0.3-0.5,0.8-0.5,1.3
	c0,0.5,0.1,0.9,0.4,1.2C167.3,77.7,167.7,77.9,168.1,77.9z M167.6,75.5c0.1-0.2,0.3-0.3,0.5-0.3c0.2,0,0.4,0.1,0.5,0.3
	c0.1,0.2,0.2,0.4,0.2,0.7c0,0.3-0.1,0.6-0.2,0.8c-0.1,0.1-0.2,0.3-0.5,0.3c-0.2,0-0.4-0.2-0.5-0.3c-0.1-0.2-0.2-0.5-0.2-0.7
	C167.5,75.9,167.5,75.6,167.6,75.5z M139.7,74.5c-0.4,0-0.8,0.2-1.1,0.5c-0.3,0.3-0.5,0.8-0.5,1.3c0,0.5,0.2,0.9,0.4,1.2
	c0.3,0.3,0.7,0.5,1.1,0.5c0.4,0,0.8-0.1,1.1-0.4c0.3-0.3,0.5-0.8,0.5-1.3C141.2,75.1,140.6,74.5,139.7,74.5z M140.2,76.9
	c-0.1,0.1-0.2,0.3-0.5,0.3c-0.2,0-0.4-0.2-0.5-0.3c-0.1-0.2-0.2-0.5-0.2-0.7c0-0.3,0.1-0.5,0.2-0.7c0.1-0.2,0.3-0.3,0.5-0.3
	c0.2,0,0.4,0.1,0.5,0.3c0.1,0.2,0.2,0.4,0.2,0.7C140.4,76.5,140.3,76.7,140.2,76.9z M149.6,77.9c0.4,0,0.8-0.1,0.8-0.2
	c0,0,0.1-0.1,0.1-0.1l-0.1-0.5c0,0,0-0.1,0-0.1c0,0,0,0,0,0c0,0,0,0,0,0c-0.1,0.1-0.3,0.1-0.6,0.1c-0.5,0-0.9-0.4-0.9-1
	c0-0.5,0.3-1,0.9-1c0.2,0,0.4,0,0.5,0.1c0,0,0,0,0,0c0,0,0,0,0,0c0,0,0,0,0.1-0.1l0.1-0.5c0,0,0-0.1,0-0.1c-0.1-0.1-0.4-0.2-0.7-0.2
	c-0.5,0-0.9,0.2-1.3,0.5c-0.3,0.3-0.5,0.8-0.5,1.2c0,0.5,0.2,0.9,0.4,1.2C148.8,77.7,149.2,77.9,149.6,77.9z M146.5,74.5
	c-0.5,0-0.8,0.2-1.1,0.5c-0.3,0.3-0.4,0.8-0.4,1.2c0,0.5,0.1,0.9,0.4,1.2c0.3,0.3,0.7,0.5,1.2,0.5c0.4,0,0.8-0.1,1-0.2
	c0,0,0.1-0.1,0.1-0.1l-0.1-0.5c0,0,0,0,0-0.1c0,0,0,0,0,0c0,0,0,0,0,0c-0.2,0.1-0.5,0.1-0.8,0.1c-0.3,0-0.8-0.1-0.8-0.8h1.9
	c0,0,0.1,0,0.1-0.1c0-0.1,0-0.2,0-0.3c0-0.4-0.1-0.8-0.3-1.1C147.2,74.6,146.9,74.5,146.5,74.5z M145.8,75.8c0-0.2,0.2-0.7,0.6-0.7
	c0.2,0,0.3,0,0.4,0.1c0.1,0.1,0.2,0.4,0.2,0.5H145.8z M164.1,77.6l-0.1-0.5c0,0,0,0,0-0.1c0,0,0,0,0,0c0,0,0,0,0,0
	c-0.2,0.1-0.5,0.1-0.8,0.1c-0.3,0-0.8-0.1-0.8-0.8h1.9c0,0,0.1,0,0.1-0.1c0-0.1,0-0.2,0-0.3c0-0.4-0.1-0.8-0.3-1.1
	c-0.2-0.3-0.6-0.5-1-0.5c-0.4,0-0.8,0.2-1.1,0.5c-0.3,0.3-0.4,0.8-0.4,1.2c0,0.5,0.1,0.9,0.4,1.2c0.3,0.3,0.7,0.5,1.2,0.5
	c0.4,0,0.8-0.1,1-0.2C164.1,77.7,164.1,77.6,164.1,77.6z M162.9,75.1c0.2,0,0.3,0,0.4,0.1c0.1,0.1,0.2,0.4,0.2,0.5h-1.2
	C162.3,75.6,162.5,75.1,162.9,75.1z M142.4,79.1C142.5,79.1,142.5,79.1,142.4,79.1l0.1-1.5c0.1,0.1,0.1,0.1,0.2,0.1
	c0.2,0.1,0.3,0.1,0.5,0.1c0.4,0,0.7-0.2,1-0.4c0.3-0.3,0.4-0.8,0.4-1.3c0-0.5-0.1-0.9-0.4-1.2c-0.2-0.3-0.6-0.5-0.9-0.5
	c-0.4,0-0.7,0.1-0.9,0.4l0-0.2c0,0,0-0.1-0.1-0.1h-0.6c0,0,0,0-0.1,0c0,0,0,0,0,0.1c0,0.3,0,0.6,0,1V79c0,0.1,0,0.1,0.1,0.1H142.4z
	 M142.5,75.9c0-0.4,0.3-0.7,0.6-0.7c0.2,0,0.4,0.1,0.5,0.3c0.1,0.2,0.2,0.4,0.2,0.7c0,0.5-0.2,1-0.7,1c-0.3,0-0.6-0.2-0.6-0.7V75.9z
	 M137.4,83.2l-0.8-0.1C136.6,83.2,136.9,83.3,137.4,83.2z M136.9,83.8c0.2,0,0.3-0.1,0.4-0.1c-0.3,0-0.5,0-0.7-0.1
	C136.6,83.7,136.7,83.8,136.9,83.8z M138,81.6l0-0.1l-0.2,0l0.1-0.1l-0.4-0.2l-0.2,0.2c0,0,0.2,0.1,0.2,0.1c0,0-0.5,0.1-0.5,0.1v0.3
	l0.6,0l-0.6,0.5l0.3,0.2l0.2-0.2l-0.1,0.6l0.3,0l0-0.6l0.1,0.2l0.2-0.2l-0.3-0.3L138,81.6z M137.3,83.5c0-0.1,0-0.1,0-0.1
	s-0.7,0-0.9-0.1c0,0,0,0.1,0,0.1C136.9,83.5,137.2,83.5,137.3,83.5z M137.4,83.3c0,0-0.8-0.1-0.9-0.1
	C136.5,83.3,136.7,83.4,137.4,83.3z M139.8,83.5c0-0.1,0-0.1,0-0.1c-0.2,0.1-0.9,0.1-0.9,0.1s0,0.1,0,0.1
	C139.1,83.5,139.4,83.5,139.8,83.5z M139.4,83.8c0.2,0,0.3-0.1,0.4-0.2c-0.2,0-0.5,0-0.7,0.1C139.1,83.7,139.2,83.8,139.4,83.8z
	 M138.1,80.2c-0.4,0-1.3,0.1-2,0.8c-0.6,0.7-0.9,1.6-0.7,2.9c0.3,2.8,3,2.8,3,2.8h0c1.1,0,2.5-0.6,2.7-3.3c0.1-1.1-0.2-2-0.8-2.6
	C139.6,80.5,138.8,80.2,138.1,80.2z M135.5,84c0-0.2,0-0.4,0-0.6c0-0.5,0.1-0.9,0.2-1.3c0.1,0.1,0.3,0.2,0.4,0.3
	c-0.7,0.9,0,1.8,0,1.8s0,0.1-0.2,0.4c-0.3,0.5,0.2,0.7,0.2,0.7c-0.3-0.1-0.2-0.5-0.2-0.5c0,0.2,0.3,0.2,0.3,0.2
	c-0.4-0.1-0.1-0.7,0-0.7c1,0.2,1.6-0.6,1.6-0.6s0,0,0,0c0,0,0,0,0,0c-0.1,0.1-0.2,0.4-0.3,0.6c-0.6,0.1-1,0.2-1,0.2
	c0.3-0.1,0.6-0.1,0.9-0.2c0,0.2-0.1,0.3-0.1,0.4c-0.4,0.1-0.8,0.4-0.8,0.8c0,0,0,0,0,0c-0.1,0-0.4,0.1-0.6,0.1
	C135.9,85.3,135.6,84.8,135.5,84z M136.8,83c0.1,0,0.5,0.1,0.5,0.1c0.2,0.2,0.4,0.3,0.5,0.5c0,0.1-0.4,0.5-1.1,0.5
	c-0.7,0-0.8-1.3-0.3-1.6c0.2,0.1,0.5,0.3,0.8,0.5c-0.3-0.2-0.8-0.1-0.8-0.1S136.6,82.9,136.8,83z M137.8,85.4l0-0.4
	c0.1,0,0.2,0,0.3,0l0,0.4C138,85.4,137.9,85.4,137.8,85.4z M138.1,85.5l0,0.3c-0.1,0-0.2,0-0.3,0l0-0.3
	C137.9,85.5,138,85.5,138.1,85.5z M137.7,85.5l0,0.3c-0.1,0-0.2,0-0.3,0l0-0.3C137.5,85.5,137.6,85.5,137.7,85.5z M137.4,85.4l0-0.3
	c0.1,0,0.2-0.1,0.3-0.1l0,0.4C137.6,85.4,137.5,85.4,137.4,85.4z M137.3,85.5l0,0.2c-0.2,0-0.3-0.1-0.3-0.2v0
	C137.1,85.5,137.2,85.5,137.3,85.5z M137.1,85.4c0-0.1,0.1-0.2,0.2-0.3l0,0.2C137.2,85.4,137.2,85.4,137.1,85.4z M139.3,86.4
	l-0.1-0.3l-0.4,0.1l0.1,0.3c-0.1,0-0.3,0.1-0.4,0.1v-0.3l-0.4,0v0.3c-0.1,0-0.2,0-0.4-0.1l0-0.3l-0.4-0.1l0,0.2
	c-0.3-0.1-0.7-0.3-1-0.7c0.1,0,0.3-0.1,0.5-0.1c0.1,0.4,0.6,0.4,1.4,0.4c0.8,0,1.4,0.1,1.4-0.4c0.2,0,0.4,0.1,0.5,0.1
	C139.9,86.1,139.6,86.3,139.3,86.4z M138.2,85.4l0-0.4c0.1,0,0.2,0,0.3,0l0,0.4C138.4,85.4,138.3,85.4,138.2,85.4z M138.5,85.5
	l0,0.3c-0.1,0-0.2,0-0.3,0l0-0.3C138.3,85.5,138.4,85.5,138.5,85.5z M138.6,85.4l0-0.4c0.1,0,0.2,0.1,0.3,0.1l0,0.3
	C138.8,85.4,138.7,85.4,138.6,85.4z M138.9,85.5l0,0.3c-0.1,0-0.2,0-0.3,0l0-0.3C138.7,85.5,138.8,85.5,138.9,85.5z M139,85.4l0-0.3
	c0.2,0.1,0.3,0.2,0.3,0.3C139.2,85.5,139.1,85.4,139,85.4z M139.3,85.5c0,0.1,0,0.2-0.3,0.2l0-0.2C139.1,85.5,139.2,85.6,139.3,85.5
	L139.3,85.5z M140.8,83.3c0,0.1,0,0.2,0,0.3c-0.1,0.9-0.3,1.6-0.6,2.1c-0.2-0.1-0.5-0.1-0.5-0.1c0-0.5-0.5-0.7-1-0.8
	c0-0.1,0-0.2-0.1-0.4c0.6,0,1,0.1,1,0.1c-0.4-0.1-0.7-0.2-1.1-0.2c-0.1-0.2-0.2-0.5-0.3-0.6c0,0,0,0,0,0c0.1,0.1,0.7,0.7,1.6,0.5
	c0.1,0,0.4,0.5,0,0.7c0,0,0.3,0,0.3-0.2c0,0,0.1,0.4-0.2,0.5c0,0,0.5-0.1,0.2-0.7c-0.2-0.3-0.2-0.4-0.2-0.4s0.7-0.9,0-1.8
	c0.1-0.1,0.3-0.3,0.4-0.3C140.7,82.4,140.8,82.8,140.8,83.3z M139.1,82l0,0.2l-0.2,0l0-0.2L139.1,82z M138.8,81.7l0.3,0l0,0.2
	l-0.2,0L138.8,81.7z M138.9,83c0.1,0,0.4-0.1,0.5-0.1c0.2,0,0.4-0.1,0.4-0.1s-0.5-0.1-0.8,0.1c0.3-0.2,0.7-0.4,0.8-0.5
	c0.5,0.3,0.5,1.5-0.3,1.6c-0.7,0-1.2-0.4-1.1-0.5C138.5,83.4,138.7,83.2,138.9,83z M139.9,82.1c-0.1-0.1-0.3-0.2-0.5-0.2
	c0,0,0.2,0.1,0.4,0.3c-0.3,0.2-0.6,0.4-0.8,0.6l0-0.4l0.4,0l0-0.9l-0.5,0l0-0.4l-0.4,0l0.1,0.4l-0.4,0l0.1,0.9l0.3,0l-0.1,0.6l0.3,0
	c-0.2,0.2-0.4,0.3-0.5,0.4c-0.1,0-0.2,0-0.3,0c-0.3-0.3-0.9-0.7-1.4-1c0.2-0.1,0.4-0.3,0.4-0.3c-0.2,0-0.4,0.1-0.5,0.2
	c-0.3-0.2-0.5-0.3-0.6-0.3c0.1-0.2,0.2-0.4,0.4-0.6c0,0,0.1-0.1,0.1-0.1l0.3,0.4l0.2-0.2l-0.3-0.3c0.5-0.3,1-0.4,1.3-0.5l0,0.5
	l0.4,0l0-0.5c0.5,0,1,0.2,1.4,0.5l-0.3,0.4l0.3,0.2l0.3-0.4c0,0,0,0,0,0c0.2,0.2,0.3,0.4,0.5,0.6C140.3,81.9,140.1,82,139.9,82.1z
	 M138.6,82l0,0.2l-0.2,0l0-0.2L138.6,82z M138.3,81.7l0.3,0v0.2h-0.2L138.3,81.7z M139.7,83.2l-0.8,0.1
	C139.4,83.3,139.7,83.2,139.7,83.2z M139.8,83.3c-0.1,0-0.9,0.1-0.9,0.1C139.5,83.4,139.8,83.3,139.8,83.3z"/>
<g>
	<path fill="#221714" d="M64.2,81c-0.7-0.3-1-0.5-1-0.9c0-0.3,0.3-0.6,0.8-0.6c0.5,0,0.8,0.1,1,0.2l0.2-0.9
		c-0.3-0.1-0.7-0.3-1.2-0.3c-1.2,0-1.9,0.7-1.9,1.6c0,0.7,0.5,1.3,1.4,1.6c0.6,0.3,0.9,0.5,0.9,0.9c0,0.4-0.3,0.7-0.9,0.7
		c-0.5,0-0.9-0.1-1.2-0.3L62,84.1c0.3,0.2,0.8,0.3,1.4,0.3c1.3,0,2-0.7,2-1.7C65.5,81.9,65.1,81.4,64.2,81z M66.2,84.3h1.1v-4.1
		h-1.1V84.3z M66.8,78.6c-0.3,0-0.6,0.2-0.6,0.6c0,0.3,0.2,0.6,0.6,0.6c0.3,0,0.6-0.2,0.6-0.6C67.4,78.8,67.1,78.6,66.8,78.6z
		 M68.3,84.3h1.1v-5.9h-1.1V84.3z M72.5,80.2c-0.4,0-0.8,0.2-1.1,0.6h0v-2.3h-1.1v5.9h1.1v-2.5c0-0.6,0.4-0.8,0.7-0.8
		c0.5,0,0.6,0.4,0.6,0.9v2.3h1.1v-2.4C73.8,80.7,73.3,80.2,72.5,80.2z M76.5,80.2c-1.1,0-1.9,0.8-1.9,2.1c0,1.3,0.8,2.1,1.9,2.1
		c0.9,0,1.9-0.6,1.9-2.1C78.3,81,77.6,80.2,76.5,80.2z M76.5,83.6c-0.5,0-0.8-0.6-0.8-1.3c0-0.6,0.2-1.3,0.8-1.3
		c0.6,0,0.8,0.7,0.8,1.3C77.2,83,77,83.6,76.5,83.6z M82.6,80.2h-1.1v2.5c0,0.5-0.3,0.8-0.7,0.8c-0.4,0-0.6-0.4-0.6-1v-2.3h-1.1v2.4
		c0,1.2,0.5,1.7,1.3,1.7c0.6,0,1-0.4,1.2-0.6h0l0.1,0.5h0.9c0-0.3,0-0.8,0-1.2V80.2z M85.2,80.2c-1.2,0-1.9,1-1.9,2.2
		c0,1.3,0.7,2.1,2,2.1c0.5,0,1-0.1,1.3-0.2l-0.2-0.7c-0.3,0.1-0.6,0.2-1,0.2c-0.6,0-1.1-0.3-1.1-1h2.4c0-0.1,0-0.3,0-0.4
		C86.8,80.9,86.2,80.2,85.2,80.2z M84.4,81.8c0-0.4,0.2-0.9,0.8-0.9c0.5,0,0.7,0.5,0.7,0.9H84.4z M88.8,79.2l-1.1,0.3v0.7h-0.5V81
		h0.5v1.9c0,0.5,0,1.5,1.2,1.5c0.3,0,0.6,0,0.7-0.1l0-0.8c-0.1,0-0.2,0-0.4,0c-0.3,0-0.5-0.2-0.5-0.7V81h0.9v-0.8h-0.9V79.2z
		 M91.6,79.2l-1.1,0.3v0.7H90V81h0.5v1.9c0,0.5,0,1.5,1.2,1.5c0.3,0,0.6,0,0.7-0.1l0-0.8c-0.1,0-0.2,0-0.4,0c-0.3,0-0.5-0.2-0.5-0.7
		V81h0.9v-0.8h-0.9V79.2z M94.8,80.2c-1.2,0-1.9,1-1.9,2.2c0,1.3,0.7,2.1,2,2.1c0.5,0,1-0.1,1.3-0.2l-0.2-0.7
		c-0.3,0.1-0.6,0.2-1,0.2c-0.6,0-1.1-0.3-1.1-1h2.4c0-0.1,0-0.3,0-0.4C96.5,80.9,95.8,80.2,94.8,80.2z M94,81.8
		c0-0.4,0.2-0.9,0.8-0.9c0.5,0,0.7,0.5,0.7,0.9H94z M100.4,78.7c-0.5,0-1,0.1-1.4,0.1v5.5c0.3,0,0.7,0.1,1.2,0.1
		c1,0,1.8-0.2,2.3-0.7c0.5-0.5,0.8-1.2,0.8-2.2v0C103.3,80.1,102.8,78.7,100.4,78.7z M100.4,83.7c-0.2,0-0.4,0-0.5,0v-4.2
		c0.1,0,0.4-0.1,0.7-0.1c1.2,0,1.9,0.7,1.9,2.1C102.4,82.9,101.7,83.7,100.4,83.7z M105.7,80.2c-1.1,0-1.8,1-1.8,2.2
		c0,1.2,0.7,2,1.9,2c0.5,0,1-0.1,1.3-0.2l-0.1-0.6c-0.3,0.1-0.6,0.2-1,0.2c-0.6,0-1.2-0.3-1.2-1.3h2.6c0-0.1,0-0.2,0-0.4
		C107.3,81.1,106.9,80.2,105.7,80.2z M104.7,81.9c0-0.5,0.3-1.1,0.9-1.1c0.6,0,0.8,0.6,0.8,1.1H104.7z M109.5,81.9
		c-0.5-0.2-0.7-0.4-0.7-0.6c0-0.3,0.2-0.5,0.6-0.5c0.3,0,0.6,0.1,0.8,0.2l0.2-0.6c-0.2-0.1-0.6-0.2-1-0.2c-0.8,0-1.4,0.5-1.4,1.2
		c0,0.5,0.3,0.9,1,1.2c0.5,0.2,0.7,0.4,0.7,0.7c0,0.3-0.2,0.5-0.7,0.5c-0.3,0-0.7-0.1-0.9-0.3l-0.2,0.6c0.3,0.2,0.7,0.3,1.1,0.3
		c0.9,0,1.5-0.5,1.5-1.2C110.5,82.6,110.1,82.2,109.5,81.9z M111.3,84.3h0.8v-4h-0.8V84.3z M111.7,78.7c-0.3,0-0.5,0.2-0.5,0.5
		c0,0.3,0.2,0.5,0.5,0.5c0.3,0,0.5-0.2,0.5-0.5C112.2,78.9,112,78.7,111.7,78.7z M115.8,80.8L115.8,80.8c-0.2-0.3-0.5-0.6-1.1-0.6
		c-0.9,0-1.7,0.8-1.7,2.1c0,1.1,0.7,2,1.6,2c0.5,0,0.9-0.2,1.1-0.6h0v0.4c0,0.9-0.5,1.3-1.1,1.3c-0.5,0-0.8-0.1-1.1-0.3l-0.2,0.7
		c0.3,0.2,0.8,0.3,1.3,0.3c1.9,0,2-1.5,2-2.3v-2.3c0-0.5,0-0.9,0-1.2h-0.8L115.8,80.8z M115.7,82.6c0,0.7-0.4,1-0.9,1
		c-0.6,0-1-0.6-1-1.4c0-0.9,0.4-1.4,1-1.4c0.5,0,0.9,0.4,0.9,1V82.6z M119.6,80.2c-0.6,0-1,0.3-1.2,0.7h0l0-0.6h-0.7
		c0,0.3,0,0.7,0,1.1v2.9h0.8v-2.4c0-0.6,0.4-1,0.9-1c0.6,0,0.8,0.5,0.8,1.1v2.4h0.8v-2.5C121,80.6,120.3,80.2,119.6,80.2z
		 M125.5,77.6h-0.3V77c0.2,0,0.3-0.1,0.3-0.2c0-0.1-0.3-0.2-0.7-0.2c0-0.2-0.1-0.3-0.1-0.3c-0.1,0-0.1,0.1-0.1,0.3
		c-0.4,0-0.7,0.1-0.7,0.2c0,0.1,0.1,0.1,0.3,0.2v0.6h-0.3l-0.2,6.7h2.2L125.5,77.6z M123.8,79.2h1.6l0,1.2h-1.7L123.8,79.2z
		 M123.7,81.5h1.7l0,1.2h-1.8L123.7,81.5z M57.3,82.1c-0.1,0.2-0.2,0.3-0.3,0.4c-0.2,0.2-0.4,0.2-0.7,0.2c-0.2,0-0.5-0.1-0.7-0.2
		c-0.2-0.1-0.4-0.3-0.5-0.6c-0.1-0.2-0.1-0.5-0.1-0.8c0-0.6,0.1-1,0.4-1.3c0.2-0.2,0.5-0.3,0.8-0.3c0.5,0,0.9,0.3,1.1,0.8l0.6-0.2
		c-0.1-0.4-0.3-0.6-0.6-0.8c-0.3-0.2-0.7-0.4-1.1-0.4c-0.3,0-0.6,0.1-0.9,0.2c-0.3,0.1-0.5,0.4-0.7,0.7c-0.2,0.4-0.3,0.8-0.3,1.3
		c0,0.3,0.1,0.7,0.2,1c0.1,0.2,0.2,0.4,0.4,0.6c0.3,0.3,0.8,0.5,1.4,0.5c0.6,0,1.1-0.2,1.4-0.6c0.1-0.1,0.2-0.3,0.3-0.6l-0.7-0.2
		C57.4,82,57.3,82.1,57.3,82.1z M56.3,77c-2.2,0-4.1,1.8-4.1,4.1c0,2.2,1.8,4.1,4.1,4.1c2.2,0,4.1-1.8,4.1-4.1
		C60.3,78.8,58.5,77,56.3,77z M56.3,84.5c-1.9,0-3.5-1.5-3.5-3.5c0-1.9,1.5-3.5,3.5-3.5c1.9,0,3.4,1.5,3.5,3.5
		C59.7,83,58.2,84.5,56.3,84.5z"/>
</g>
<g>
	<path fill="#040000" d="M93.1,97.4h-0.7v-2.7c0-0.7-0.3-1.4-1-1.4c-0.5,0-1.2,0.4-1.2,1.3v2.8h-0.7v-6.6h0.7v2.8h0
		c0.3-0.5,0.8-0.8,1.4-0.8c0.6,0,1.5,0.3,1.5,1.9V97.4z"/>
	<path fill="#040000" d="M94.6,92l0.7-0.2v1.1h1.2v0.5h-1.2V96c0,0.6,0.2,0.9,0.6,0.9c0.2,0,0.3,0,0.5-0.1l0,0.5
		c-0.2,0.1-0.4,0.1-0.7,0.1c-1.1,0-1.1-1-1.1-1.5v-2.6h-0.7v-0.5h0.7V92z"/>
	<path fill="#040000" d="M97.5,92l0.7-0.2v1.1h1.2v0.5h-1.2V96c0,0.6,0.2,0.9,0.6,0.9c0.2,0,0.3,0,0.5-0.1l0,0.5
		c-0.2,0.1-0.4,0.1-0.7,0.1c-1.1,0-1.1-1-1.1-1.5v-2.6h-0.7v-0.5h0.7V92z"/>
	<path fill="#040000" d="M100.9,93.6c0.3-0.6,0.8-0.9,1.5-0.9c1.1,0,1.8,0.9,1.8,2.3c0,1.7-1,2.4-2,2.4c-0.6,0-1.1-0.3-1.4-0.7h0
		v2.5h-0.7v-4.9c0-0.6,0-1,0-1.5h0.6L100.9,93.6L100.9,93.6z M101,95.6c0,0.9,0.7,1.3,1.3,1.3c0.9,0,1.4-0.8,1.4-1.8
		c0-0.9-0.5-1.8-1.4-1.8c-0.8,0-1.3,0.7-1.3,1.4V95.6z"/>
	<path fill="#040000" d="M105.2,93.6c0-0.3,0.2-0.5,0.5-0.5c0.3,0,0.5,0.2,0.5,0.5c0,0.3-0.2,0.5-0.5,0.5
		C105.3,94.1,105.2,93.8,105.2,93.6z M105.2,97c0-0.3,0.2-0.5,0.5-0.5c0.3,0,0.5,0.2,0.5,0.5c0,0.3-0.2,0.5-0.5,0.5
		C105.3,97.5,105.2,97.2,105.2,97z"/>
	<path fill="#040000" d="M107,97.8h-0.6l2.6-6.8h0.6L107,97.8z"/>
	<path fill="#040000" d="M110.2,97.8h-0.6l2.6-6.8h0.6L110.2,97.8z"/>
	<path fill="#040000" d="M117,97.4h-0.8l-1.6-2.2l-0.4,0.5v1.8h-0.7v-6.6h0.7V95h0c0.1-0.2,0.3-0.4,0.4-0.5l1.4-1.6h0.8l-1.7,1.9
		L117,97.4z"/>
	<path fill="#040000" d="M120.5,96.3c0,0.4,0,0.8,0.1,1.1H120l-0.1-0.6h0c-0.2,0.4-0.7,0.7-1.3,0.7c-0.9,0-1.3-0.6-1.3-1.3
		c0-1.1,0.9-1.7,2.6-1.7c0-0.4,0-1.2-1-1.2c-0.4,0-0.8,0.1-1.1,0.3l-0.2-0.5c0.4-0.2,0.9-0.4,1.4-0.4c1.3,0,1.6,0.9,1.6,1.8V96.3z
		 M119.9,95c-0.9,0-1.9,0.1-1.9,1.1c0,0.6,0.4,0.8,0.8,0.8c0.7,0,1.1-0.5,1.1-1.1V95z"/>
	<path fill="#040000" d="M125.5,92.9c0,0.3,0,0.7,0,1.2v2.6c0,0.8,0,2.6-2.2,2.6c-0.5,0-1.1-0.1-1.4-0.4l0.2-0.5
		c0.3,0.2,0.7,0.3,1.3,0.3c0.8,0,1.4-0.4,1.4-1.6v-0.5h0c-0.2,0.4-0.7,0.8-1.4,0.8c-1.1,0-1.9-1-1.9-2.2c0-1.6,1-2.4,2-2.4
		c0.8,0,1.2,0.4,1.4,0.8h0l0-0.7H125.5z M124.8,94.6c0-0.8-0.6-1.3-1.2-1.3c-0.8,0-1.4,0.7-1.4,1.8c0,1,0.5,1.7,1.3,1.7
		c0.5,0,1.2-0.4,1.2-1.3V94.6z"/>
	<path fill="#040000" d="M130.1,97.2c-0.3,0.1-0.7,0.3-1.4,0.3c-1.3,0-2.1-0.9-2.1-2.3c0-1.4,0.8-2.4,2-2.4c1.4,0,1.8,1.3,1.8,2.1
		c0,0.2,0,0.3,0,0.4h-3.1c0,1.3,0.7,1.7,1.5,1.7c0.6,0,0.9-0.1,1.2-0.2L130.1,97.2z M129.6,94.7c0-0.6-0.3-1.4-1.1-1.4
		c-0.8,0-1.2,0.8-1.3,1.4H129.6z"/>
	<path fill="#040000" d="M130.9,94.6h2.3v0.5h-2.3V94.6z"/>
	<path fill="#040000" d="M137.8,96.3c0,0.4,0,0.8,0,1.1h-0.6l0-0.8h0c-0.2,0.5-0.7,0.9-1.5,0.9c-1,0-1.9-0.9-1.9-2.3
		c0-1.5,0.9-2.4,2-2.4c0.7,0,1.1,0.3,1.3,0.7h0v-2.7h0.7V96.3z M137.1,94.7c0-0.9-0.6-1.4-1.2-1.4c-0.9,0-1.4,0.8-1.4,1.8
		c0,1,0.4,1.8,1.3,1.8c0.7,0,1.2-0.7,1.2-1.4V94.7z"/>
	<path fill="#040000" d="M142.4,97.2c-0.3,0.1-0.7,0.3-1.4,0.3c-1.3,0-2.1-0.9-2.1-2.3c0-1.4,0.8-2.4,2-2.4c1.4,0,1.8,1.3,1.8,2.1
		c0,0.2,0,0.3,0,0.4h-3.1c0,1.3,0.7,1.7,1.5,1.7c0.6,0,0.9-0.1,1.2-0.2L142.4,97.2z M141.9,94.7c0-0.6-0.3-1.4-1.1-1.4
		c-0.8,0-1.2,0.8-1.3,1.4H141.9z"/>
	<path fill="#040000" d="M145.8,93.6c-0.2-0.1-0.5-0.3-0.9-0.3c-0.5,0-0.8,0.3-0.8,0.7c0,0.4,0.3,0.6,0.8,0.8
		c0.7,0.3,1.2,0.7,1.2,1.4c0,0.8-0.6,1.3-1.6,1.3c-0.4,0-0.9-0.1-1.2-0.3l0.2-0.5c0.2,0.1,0.6,0.3,1,0.3c0.6,0,0.9-0.3,0.9-0.7
		c0-0.4-0.2-0.7-0.8-0.9c-0.8-0.3-1.2-0.7-1.2-1.3c0-0.7,0.6-1.3,1.5-1.3c0.4,0,0.8,0.1,1,0.3L145.8,93.6z"/>
	<path fill="#040000" d="M147.5,92.1c-0.3,0-0.4-0.2-0.4-0.5c0-0.3,0.2-0.5,0.5-0.5c0.3,0,0.4,0.2,0.4,0.5
		C148,91.9,147.8,92.1,147.5,92.1z M147.8,97.4h-0.7v-4.5h0.7V97.4z"/>
	<path fill="#040000" d="M152.9,92.9c0,0.3,0,0.7,0,1.2v2.6c0,0.8,0,2.6-2.2,2.6c-0.5,0-1.1-0.1-1.4-0.4l0.2-0.5
		c0.3,0.2,0.7,0.3,1.3,0.3c0.8,0,1.4-0.4,1.4-1.6v-0.5h0c-0.2,0.4-0.7,0.8-1.4,0.8c-1.1,0-1.9-1-1.9-2.2c0-1.6,1-2.4,2-2.4
		c0.8,0,1.2,0.4,1.4,0.8h0l0-0.7H152.9z M152.2,94.6c0-0.8-0.6-1.3-1.2-1.3c-0.8,0-1.4,0.7-1.4,1.8c0,1,0.5,1.7,1.3,1.7
		c0.5,0,1.2-0.4,1.2-1.3V94.6z"/>
	<path fill="#040000" d="M157.8,97.4h-0.7v-2.7c0-0.7-0.3-1.4-1.1-1.4c-0.6,0-1.2,0.5-1.2,1.3v2.8h-0.7V94c0-0.5,0-0.8,0-1.2h0.6
		l0,0.7h0c0.2-0.4,0.7-0.8,1.5-0.8c0.6,0,1.5,0.3,1.5,1.9V97.4z"/>
	<path fill="#040000" d="M159,97c0-0.3,0.2-0.5,0.5-0.5c0.3,0,0.5,0.2,0.5,0.5c0,0.3-0.2,0.5-0.5,0.5C159.1,97.5,159,97.2,159,97z"
		/>
	<path fill="#040000" d="M164,97.2c-0.2,0.1-0.6,0.3-1.2,0.3c-1.3,0-2.1-0.9-2.1-2.3c0-1.4,0.9-2.4,2.3-2.4c0.5,0,0.9,0.1,1.1,0.2
		l-0.2,0.6c-0.2-0.1-0.5-0.2-0.9-0.2c-1,0-1.6,0.8-1.6,1.8c0,1.1,0.7,1.8,1.6,1.8c0.4,0,0.8-0.1,1-0.2L164,97.2z"/>
	<path fill="#040000" d="M168.8,95.1c0,1.7-1.1,2.4-2.1,2.4c-1.2,0-2.1-0.9-2.1-2.3c0-1.5,1-2.4,2.1-2.4
		C168,92.8,168.8,93.7,168.8,95.1z M166.7,93.3c-1,0-1.4,1-1.4,1.8c0,1,0.6,1.8,1.4,1.8c0.8,0,1.4-0.8,1.4-1.8
		C168.1,94.3,167.7,93.3,166.7,93.3z"/>
	<path fill="#040000" d="M176,97.4h-0.7v-2.6c0-0.9-0.3-1.4-1-1.4c-0.6,0-1.1,0.5-1.1,1.2v2.8h-0.7v-2.8c0-0.7-0.3-1.3-0.9-1.3
		c-0.6,0-1.1,0.6-1.1,1.3v2.8h-0.7V94c0-0.5,0-0.8,0-1.2h0.6l0,0.7h0c0.2-0.4,0.7-0.8,1.4-0.8c0.6,0,1,0.4,1.2,0.9h0
		c0.3-0.5,0.8-0.9,1.5-0.9c0.6,0,1.4,0.4,1.4,1.9V97.4z"/>
</g>
</svg>
