<?xml version="1.0" encoding="iso-8859-1"?>
<!-- Generator: Adobe Illustrator 15.1.0, SVG Export Plug-In . SVG Version: 6.00 Build 0)  -->
<!DOCTYPE svg PUBLIC "-//W3C//DTD SVG 1.1//EN" "http://www.w3.org/Graphics/SVG/1.1/DTD/svg11.dtd">
<svg version="1.1" id="snowman1" xmlns="http://www.w3.org/2000/svg" xmlns:xlink="http://www.w3.org/1999/xlink" x="0px" y="0px"
	 width="200px" height="200px" viewBox="0 0 512 512" style="enable-background:new 0 0 512 512;" xml:space="preserve">
<g>
	<g class="hat">
	<path d="M301.09,16.014c-25.441-5.089-66.132-7.516-75.149,30.06c-9.018,37.575-9.018,40.58-9.018,40.58s-33.064,0-37.573,18.037
		c-4.509,18.036,52.604,39.077,106.71,49.599c54.109,10.521,88.677,7.515,91.683-6.013c3.007-13.526-24.047-28.557-24.047-28.557
		s2.101-30.55,6.011-43.586C368.725,46.073,331.151,22.026,301.09,16.014z"/>
		<path style="fill:#FFFFFF;" d="M352.192,59.602c-10.52,12.023-19.538-7.515-48.097-16.537
		c-28.554-9.017-61.622,13.531-73.643,15.033c-11.724,1.465-12.015-7.067-12.023-15.859v-0.676c0-9.018,3.005-24.047,21.039-36.068
		c18.034-12.028,62.634-1.668,85.672,6.011c11.558,3.853,20.093,10.997,25.263,18.852C357.343,40.89,358.219,52.713,352.192,59.602z
		"/>
		<path style="fill:#FFFFFF;" d="M341.673,104.69c0,0,24.048,7.515,33.065,19.538c9.018,12.024,21.04,28.557,3.004,24.048
			c-18.034-4.509-15.167-6.075-27.122-12.807C338.667,128.737,334.156,104.69,341.673,104.69z"/>
		<path style="fill:#FFFFFF;" d="M332.654,109.2c-0.615,0-2.064-0.154-4.182-0.437c-18.616-2.463-89.04-14.437-102.529-13.089
			c-15.034,1.504-24.052,16.53-40.582,15.028c-4.894-0.446-8.606-1.943-11.13-3.958c-6.002-4.764-5.296-12.408,2.112-15.585
			c10.52-4.507,31.561-10.52,45.091-10.52c6.011,0,28.554,3.006,34.566,6.013c6.011,3.006,6.011,0,31.564,1.502
			C313.113,89.659,338.667,109.2,332.654,109.2z"/>
	</g>
	<circle style="fill:#EFECE7;" cx="266.523" cy="191.864" r="96.191"/>
	<path style="fill:#FFFFFF;" d="M197.354,132.224c10.032-10.031,56.105-11.522,58.11,5.511
		c2.005,17.032-46.588,34.063-60.114,51.097C181.824,205.863,164.292,165.286,197.354,132.224z"/>
	<circle style="fill:#EFECE7;" cx="256" cy="376.731" r="135.269"/>
	<path style="fill:#FFFFFF;" d="M158.281,295.532c8.404-6.841,23.042,19.036,23.042,26.049c0,7.014,40.077,19.037,72.136,53.102
		c32.063,34.063-61.113,88.165-95.178,57.107C124.216,400.729,115.198,330.599,158.281,295.532z"/>
	<path style="opacity:0.18;" d="M182.326,295.532c5.793,3.407,44.083,11.021,52.099,12.022c8.016,1.003-17.033,37.07-5.01,42.079
		c12.023,5.01,23.044,11.021,24.044,2.005c1.002-9.018,4.01-39.073,4.01-39.073l10.019,1c0,0,14.026,34.065,25.047,37.07
		c11.021,3.006,52.1-5.01,50.095-12.022c-2.003-7.014-15.029-30.056-15.029-30.056l35.066-12.023l-7.014-9.017
		c0,0-152.288,3.006-168.317-3.007C171.305,278.5,165.294,285.514,182.326,295.532z"/>
	<path style="fill:#E72B47;" d="M179.859,236.955c-6.962-0.648-4.69,1.504-7.819,13.525c-3.128,12.021-10.947,22.544,1.563,33.065
		s54.737,19.539,90.705,19.539c35.971,0,95.397-3.007,95.397-13.526c0-10.521-6.255-16.534-6.255-24.048
		c0-7.515,6.257-27.052-9.383-22.545C328.43,247.475,228.338,241.462,179.859,236.955z"/>
	<path style="fill:#E72B47;" d="M233.457,243.717c6.011-3.006,12.723,3.708,12.723,13.478c0,11.444,26.356,66.182,27.858,73.695
		c1.502,7.515,4.509,16.532,18.035,15.03c13.527-1.503,30.061-7.516,34.57-7.516c4.509,0,12.773-3.757,1.501-15.028
		c-11.272-11.272-35.378-69.938-38.384-77.453c-3.007-7.516-9.711-11.224-32.256-11.224
		C234.958,234.699,233.457,243.717,233.457,243.717z"/>
	<path style="fill:#E72B47;" d="M216.875,294.762c-2.254,11.271-17.281,30.807-17.281,33.062c0,2.254-3.005,7.513,9.016,11.271
		s32.308,12.021,35.315,8.265c3.005-3.754,8.265-48.838,8.265-48.838L216.875,294.762z"/>
	<path d="M209.36,105.414c0,0,90.167-8.265,141.26,30.056C312.3,93.392,282.245,70.85,209.36,105.414z"/>
	<path d="M201.848,178.298c-2.932-6.498,2.253-28.552,6.762-26.299c4.509,2.254-1.237,7.276-2.237,17.295
		C205.662,176.386,206.372,188.33,201.848,178.298z"/>
	<path d="M279.991,185.06c-6.297-1.259-5.26-10.518-4.509-18.032s9.016-13.525,9.769-9.017c0.751,4.508-2.255,16.531-2.255,20.287
		S283.747,185.813,279.991,185.06z"/>
	<path style="fill:#E60012;" d="M237.161,184.309c-6.791,0.424-10.518,1.504-16.53,3.006c-6.011,1.503-6.245,4.021-22.274,5.023
		c-9.75,0.608-7.028,7.75,1.237,9.252c8.265,1.504,37.568,3.007,42.077,1.504C246.179,201.59,249.185,183.558,237.161,184.309z"/>
	<path d="M222.885,212.86c4.168-0.833,23.292,0.753,30.056,2.255c6.761,1.503,9.016,3.758,0,3.758s-21.04,0-27.801-0.751
		C218.376,217.369,219.129,213.613,222.885,212.86z"/>
	<path d="M235.427,372.678c-7.776,1.945-10.02-10.019,0-12.023C245.445,358.653,239.433,371.676,235.427,372.678z"/>
	<path d="M232.42,415.759c-8.871-1.268-10.019-15.03,0-16.029C242.44,398.728,239.433,416.762,232.42,415.759z"/>
	<path d="M229.415,457.84c-8.46-1.302-8.014-14.026,2.004-13.026C241.438,445.816,242.44,459.843,229.415,457.84z"/>
	<path style="fill:#E2E2E2;" d="M328.473,108.764c-18.616-2.463-89.04-14.437-102.529-13.089
		c-15.034,1.504-24.052,16.53-40.582,15.028c-4.894-0.446-8.606-1.943-11.13-3.958c0.219-3.045,2.258-5.915,6.12-7.569
		c10.52-4.509,31.559-10.52,45.091-10.52c6.011,0,28.554,3.006,34.564,6.011c6.013,3.007,6.013,0,31.566,1.504
		C305.623,96.997,319.67,103.279,328.473,108.764z"/>
	<path style="fill:#FFFFFF;" d="M172.04,250.48c-7.721-4.509-10.747-13.558,6.779-16.565c17.526-3.005,36.602,7.547,42.614,4.544
		c6.013-3.009,18.036-6.015,28.557-6.015c10.52,0,24.047,3.006,6.011,9.018c-18.036,6.013-18.036,16.534-27.054,16.534
		c-9.018,0-43.585-1.504-51.102,0C170.332,259.498,172.04,250.48,172.04,250.48z"/>
	<path style="fill:#FFFFFF;" d="M284.559,248.977c0,0-4.51-13.526,6.012-10.518c10.52,3.003,19.54,0,34.568,1.5
		c15.03,1.503,25.552,7.516,10.521,10.521C320.63,253.485,284.559,248.977,284.559,248.977z"/>
	<path style="fill:#E2E2E2;" d="M352.192,59.602c-10.52,12.023-19.538-7.515-48.097-16.537
		c-28.554-9.017-61.622,13.531-73.643,15.033c-11.724,1.465-12.015-7.067-12.023-15.859c1.452,2.135,4.073,3.182,9.984,0.817
		c15.027-6.013,58.11-22.042,76.142-11.021c13.221,8.08,36.14,6.467,45.848-1.679C357.343,40.89,358.219,52.713,352.192,59.602z"/>
	<path style="opacity:0.18;" d="M360.662,176.307c0,30.058-12.147,62.183-16.594,66.659c5.573,1.47,8.579,2.472,9.581,10.487
		c1.003,8.016-33.063,14.026-44.083,12.023c-11.021-2.005-34.065-15.029-34.065-15.029s-11.02,11.021-16.029,12.021
		c-5.01,1.003-77.146,7.016-82.154,5.011c-5.01-2.003-13.56-16.967-5.277-16.999c8.282-0.033,78.416-2.038,78.416-2.038
		s5.008-11.021,14.026-12.02c9.017-1.004,22.042,10.017,36.068,10.017s30.023-4.723,33.061-8.015
		C345.634,225.4,360.662,176.307,360.662,176.307z"/>
	<path style="opacity:0.18;" d="M379.699,346.628c5.701-16.813,15.028,107.204-72.137,149.283
		c-70.133,31.061-129.245-11.021-139.263-27.051C168.299,468.86,320.587,520.958,379.699,346.628z"/>
</g>
</svg>
