<?xml version="1.0" encoding="utf-8"?>
<!-- Generator: Adobe Illustrator 17.1.0, SVG Export Plug-In . SVG Version: 6.00 Build 0)  -->
<!DOCTYPE svg PUBLIC "-//W3C//DTD SVG 1.1//EN" "http://www.w3.org/Graphics/SVG/1.1/DTD/svg11.dtd">
<svg version="1.1" id="snowman2" xmlns="http://www.w3.org/2000/svg" xmlns:xlink="http://www.w3.org/1999/xlink" x="0px" y="0px" width="200px" height="200px"
	 viewBox="0 0 512 512" enable-background="new 0 0 512 512" xml:space="preserve">
<g>
	<path d="M152.3,76.1c3.9,13,6,43.6,6,43.6s-27.1,15-24,28.6c3,13.5,37.6,16.5,91.7,6c54.1-10.5,111.2-31.6,106.7-49.6
		c-4.5-18-37.6-18-37.6-18s0-3-9-40.6S236.4,10.9,210.9,16C180.9,22,143.3,46.1,152.3,76.1z"/>
	<circle fill="#EFECE7" cx="245.5" cy="191.9" r="96.2"/>
	<path fill="#FFFFFF" d="M316.7,188.8c-13.5-17-62.1-34.1-60.1-51.1c2-17,48.1-15.5,58.1-5.5C347.7,165.3,330.2,205.9,316.7,188.8z"
		/>
	<circle fill="#EFECE7" cx="256" cy="376.7" r="135.3"/>
	<path fill="#FFFFFF" d="M353.7,431.8c-34.1,31.1-127.2-23-95.2-57.1c32.1-34.1,72.1-46.1,72.1-53.1c0-7,14.6-32.9,23-26
		C396.8,330.6,387.8,400.7,353.7,431.8z"/>
	<path opacity="0.18" enable-background="new    " d="M324.7,284.5c-16,6-168.3,3-168.3,3l-7,9l35.1,12c0,0-13,23-15,30.1
		c-2,7,39.1,15,50.1,12c11-3,25-37.1,25-37.1l10-1c0,0,3,30.1,4,39.1c1,9,12,3,24-2c12-5-13-41.1-5-42.1c8-1,46.3-8.6,52.1-12
		C346.7,285.5,340.7,278.5,324.7,284.5z"/>
	<g>
		<path fill="#00A29A" d="M167.9,243c-15.6-4.5-9.4,15-9.4,22.5c0,7.5-6.3,13.5-6.3,24c0,10.5,59.4,13.5,95.4,13.5
			c36,0,78.2-9,90.7-19.5c12.5-10.5,4.7-21,1.6-33.1c-3.1-12-0.9-14.2-7.8-13.5C283.7,241.5,183.6,247.5,167.9,243z"/>
		<path fill="#00A29A" d="M254.5,234.7c-22.5,0-29.3,3.7-32.3,11.2c-3,7.5-27.1,66.2-38.4,77.5c-11.3,11.3-3,15,1.5,15
			c4.5,0,21,6,34.6,7.5c13.5,1.5,16.5-7.5,18-15c1.5-7.5,27.9-62.3,27.9-73.7c0-9.8,6.7-16.5,12.7-13.5
			C278.5,243.7,277,234.7,254.5,234.7z"/>
		<path fill="#00A29A" d="M259.8,298.5c0,0,5.3,45.1,8.3,48.8c3,3.8,23.3-4.5,35.3-8.3s9-9,9-11.3c0-2.3-15-21.8-17.3-33.1
			L259.8,298.5z"/>
	</g>
	<path d="M161.4,135.5c51.1-38.3,141.3-30.1,141.3-30.1C229.8,70.8,199.7,93.4,161.4,135.5z"/>
	<path d="M305.6,169.3c-1-10-6.7-15-2.2-17.3c4.5-2.3,9.7,19.8,6.8,26.3C305.6,188.3,306.3,176.4,305.6,169.3z"/>
	<path d="M229,178.3c0-3.8-3-15.8-2.3-20.3c0.8-4.5,9,1.5,9.8,9c0.8,7.5,1.8,16.8-4.5,18C228.3,185.8,229,182.1,229,178.3z"/>
	<path fill="#E60012" d="M270.3,203.1c4.5,1.5,33.8,0,42.1-1.5c8.3-1.5,11-8.6,1.2-9.3c-16-1-16.3-3.5-22.3-5c-6-1.5-9.7-2.6-16.5-3
		C262.8,183.6,265.8,201.6,270.3,203.1z"/>
	<path d="M286.9,218.1c-6.8,0.8-18.8,0.8-27.8,0.8c-9,0-6.8-2.3,0-3.8c6.8-1.5,25.9-3.1,30.1-2.3
		C292.9,213.6,293.6,217.4,286.9,218.1z"/>
	<path d="M276.6,360.7c10,2,7.8,14,0,12C272.6,371.7,266.6,358.7,276.6,360.7z"/>
	<path d="M279.6,399.7c10,1,8.9,14.8,0,16C272.6,416.8,269.6,398.7,279.6,399.7z"/>
	<path d="M280.6,444.8c10-1,10.5,11.7,2,13C269.6,459.8,270.6,445.8,280.6,444.8z"/>
	<path fill="#FFFFFF" d="M161.6,30.4c5.2-7.9,13.7-15,25.3-18.9c23-7.7,67.6-18,85.7-6c18,12,21,27.1,21,36.1v0.7
		c0,8.8-0.3,17.3-12,15.9c-12-1.5-45.1-24-73.6-15c-28.6,9-37.6,28.6-48.1,16.5C153.8,52.7,154.7,40.9,161.6,30.4z"/>
	<path fill="#FFFFFF" d="M161.4,135.5c-12,6.7-9.1,8.3-27.1,12.8c-18,4.5-6-12,3-24c9-12,33.1-19.5,33.1-19.5
		C177.8,104.7,173.3,128.7,161.4,135.5z"/>
	<path fill="#FFFFFF" d="M224.4,88.2c25.6-1.5,25.6,1.5,31.6-1.5c6-3,28.6-6,34.6-6c13.5,0,34.6,6,45.1,10.5
		c7.4,3.2,8.1,10.8,2.1,15.6c-2.5,2-6.2,3.5-11.1,4c-16.5,1.5-25.5-13.5-40.6-15c-13.5-1.3-83.9,10.6-102.5,13.1
		c-2.1,0.3-3.6,0.4-4.2,0.4C173.3,109.2,198.9,89.7,224.4,88.2z"/>
	<path fill="#E2E2E2" d="M220.4,96.2c25.6-1.5,25.6,1.5,31.6-1.5c6-3,28.6-6,34.6-6c13.5,0,34.6,6,45.1,10.5
		c3.9,1.7,5.9,4.5,6.1,7.6c-2.5,2-6.2,3.5-11.1,4c-16.5,1.5-25.5-13.5-40.6-15c-13.5-1.3-83.9,10.6-102.5,13.1
		C192.3,103.3,206.4,97,220.4,96.2z"/>
	<path fill="#FFFFFF" d="M334.2,258c-7.5-1.5-42.1,0-51.1,0c-9,0-9-10.5-27.1-16.5c-18-6-4.5-9,6-9c10.5,0,22.5,3,28.6,6
		c6,3,25.1-7.5,42.6-4.5c17.5,3,14.5,12.1,6.8,16.6C340,250.5,341.7,259.5,334.2,258z"/>
	<path fill="#FFFFFF" d="M176.3,250.5c-15-3-4.5-9,10.5-10.5c15-1.5,24,1.5,34.6-1.5c10.5-3,6,10.5,6,10.5S191.4,253.5,176.3,250.5z
		"/>
	<path fill="#E2E2E2" d="M161.6,30.4c9.7,8.1,32.6,9.8,45.8,1.7c18-11,61.1,5,76.1,11c5.9,2.4,8.5,1.3,10-0.8
		c0,8.8-0.3,17.3-12,15.9c-12-1.5-45.1-24-73.6-15c-28.6,9-37.6,28.6-48.1,16.5C153.8,52.7,154.7,40.9,161.6,30.4z"/>
	<path opacity="0.18" enable-background="new    " d="M178.4,238.4c3,3.3,19,8,33.1,8c14,0,27-11,36.1-10c9,1,14,12,14,12
		s70.1,2,78.4,2c8.3,0-0.3,15-5.3,17c-5,2-77.1-4-82.2-5c-5-1-16-12-16-12s-23,13-34.1,15c-11,2-45.1-4-44.1-12c1-8,4-9,9.6-10.5
		c-4.4-4.5-16.6-36.6-16.6-66.7C151.3,176.3,166.4,225.4,178.4,238.4z"/>
	<path opacity="0.18" enable-background="new    " d="M343.7,468.9c-10,16-69.1,58.1-139.3,27.1c-87.2-42.1-77.8-166.1-72.1-149.3
		C191.4,521,343.7,468.9,343.7,468.9z"/>
</g>
</svg>
